<mxfile host="app.diagrams.net" modified="2023-01-27T14:54:42.035Z" agent="5.0 (Windows NT 10.0; Win64; x64) AppleWebKit/537.36 (KHTML, like Gecko) Chrome/107.0.0.0 Safari/537.36 OPR/93.0.0.0" etag="2-BIkXwqLg1CHYJmsy85" version="20.8.11" type="github">
  <diagram name="Page-1" id="e7e014a7-5840-1c2e-5031-d8a46d1fe8dd">
    <mxGraphModel dx="6210" dy="3303" grid="1" gridSize="10" guides="1" tooltips="1" connect="1" arrows="1" fold="1" page="1" pageScale="1" pageWidth="1169" pageHeight="826" background="none" math="0" shadow="0">
      <root>
        <mxCell id="0" />
        <mxCell id="1" parent="0" />
        <mxCell id="ueTn9yQbteEruOtS-YW8-402" value="Urna" style="shape=umlFrame;whiteSpace=wrap;html=1;" vertex="1" parent="1">
          <mxGeometry x="1280" y="875" width="999" height="765" as="geometry" />
        </mxCell>
        <mxCell id="ueTn9yQbteEruOtS-YW8-170" value="Interface" style="swimlane;whiteSpace=wrap" vertex="1" parent="1">
          <mxGeometry x="2720" y="130" width="330" height="610" as="geometry" />
        </mxCell>
        <mxCell id="ueTn9yQbteEruOtS-YW8-171" value="Lista de Eleição" style="shape=umlFrame;whiteSpace=wrap;html=1;" vertex="1" parent="ueTn9yQbteEruOtS-YW8-170">
          <mxGeometry x="-330" y="-40" width="1030" height="680" as="geometry" />
        </mxCell>
        <mxCell id="ueTn9yQbteEruOtS-YW8-172" value="" style="ellipse;shape=startState;fillColor=#000000;strokeColor=#b85450;" vertex="1" parent="ueTn9yQbteEruOtS-YW8-170">
          <mxGeometry x="60" y="32" width="30" height="30" as="geometry" />
        </mxCell>
        <mxCell id="ueTn9yQbteEruOtS-YW8-173" value="" style="edgeStyle=elbowEdgeStyle;elbow=horizontal;verticalAlign=bottom;endArrow=open;endSize=8;strokeColor=#b85450;endFill=1;rounded=0;fillColor=#f8cecc;entryX=0.507;entryY=-0.002;entryDx=0;entryDy=0;entryPerimeter=0;exitX=0.486;exitY=0.889;exitDx=0;exitDy=0;exitPerimeter=0;" edge="1" parent="ueTn9yQbteEruOtS-YW8-170" source="ueTn9yQbteEruOtS-YW8-172" target="ueTn9yQbteEruOtS-YW8-174">
          <mxGeometry x="40" y="20" as="geometry">
            <mxPoint x="55" y="90" as="targetPoint" />
          </mxGeometry>
        </mxCell>
        <mxCell id="ueTn9yQbteEruOtS-YW8-174" value="Verificar Usuário&#xa; Logado" style="" vertex="1" parent="ueTn9yQbteEruOtS-YW8-170">
          <mxGeometry x="20" y="110" width="110" height="50" as="geometry" />
        </mxCell>
        <mxCell id="ueTn9yQbteEruOtS-YW8-175" value="Lista" style="strokeWidth=1;" vertex="1" parent="ueTn9yQbteEruOtS-YW8-170">
          <mxGeometry x="74.75" y="220" width="110" height="50" as="geometry" />
        </mxCell>
        <mxCell id="ueTn9yQbteEruOtS-YW8-179" style="edgeStyle=orthogonalEdgeStyle;rounded=0;jumpSize=2;orthogonalLoop=1;jettySize=auto;html=1;entryX=0.5;entryY=0;entryDx=0;entryDy=0;strokeWidth=1;exitX=0.494;exitY=1.017;exitDx=0;exitDy=0;exitPerimeter=0;fillColor=#f8cecc;strokeColor=#b85450;" edge="1" parent="ueTn9yQbteEruOtS-YW8-170" source="ueTn9yQbteEruOtS-YW8-175" target="ueTn9yQbteEruOtS-YW8-222">
          <mxGeometry relative="1" as="geometry">
            <mxPoint x="75.5" y="280" as="sourcePoint" />
            <mxPoint x="129.5" y="320" as="targetPoint" />
          </mxGeometry>
        </mxCell>
        <mxCell id="ueTn9yQbteEruOtS-YW8-222" value="" style="ellipse;html=1;shape=endState;fillColor=#000000;strokeColor=#b85450;strokeWidth=1;" vertex="1" parent="ueTn9yQbteEruOtS-YW8-170">
          <mxGeometry x="114.75" y="320" width="30" height="30" as="geometry" />
        </mxCell>
        <mxCell id="ueTn9yQbteEruOtS-YW8-223" value="Pag/Urna (da Eleição)" style="text;html=1;strokeColor=none;fillColor=none;align=center;verticalAlign=middle;whiteSpace=wrap;rounded=0;" vertex="1" parent="ueTn9yQbteEruOtS-YW8-170">
          <mxGeometry x="94.63" y="350" width="70.25" height="30" as="geometry" />
        </mxCell>
        <mxCell id="ueTn9yQbteEruOtS-YW8-195" value="" style="ellipse;html=1;shape=endState;fillColor=#000000;strokeColor=#b85450;strokeWidth=1;" vertex="1" parent="ueTn9yQbteEruOtS-YW8-170">
          <mxGeometry x="280" y="180" width="30" height="30" as="geometry" />
        </mxCell>
        <mxCell id="ueTn9yQbteEruOtS-YW8-212" value="Pag/Login" style="text;html=1;strokeColor=none;fillColor=none;align=center;verticalAlign=middle;whiteSpace=wrap;rounded=0;" vertex="1" parent="ueTn9yQbteEruOtS-YW8-170">
          <mxGeometry x="266" y="202" width="60" height="30" as="geometry" />
        </mxCell>
        <mxCell id="ueTn9yQbteEruOtS-YW8-47" value="Home" style="shape=umlFrame;whiteSpace=wrap;html=1;" vertex="1" parent="1">
          <mxGeometry x="131" y="79" width="944.5" height="661" as="geometry" />
        </mxCell>
        <mxCell id="2" value="Usuário" style="swimlane;whiteSpace=wrap" parent="1" vertex="1">
          <mxGeometry x="173.5" y="128" width="271.5" height="572" as="geometry" />
        </mxCell>
        <mxCell id="5" value="" style="ellipse;shape=startState;fillColor=#000000;strokeColor=#b85450;" parent="2" vertex="1">
          <mxGeometry x="100" y="40" width="30" height="30" as="geometry" />
        </mxCell>
        <mxCell id="6" value="" style="edgeStyle=elbowEdgeStyle;elbow=horizontal;verticalAlign=bottom;endArrow=open;endSize=8;strokeColor=#b85450;endFill=1;rounded=0;fillColor=#f8cecc;exitX=0.508;exitY=0.872;exitDx=0;exitDy=0;exitPerimeter=0;entryX=0.502;entryY=-0.004;entryDx=0;entryDy=0;entryPerimeter=0;" parent="2" source="5" target="7" edge="1">
          <mxGeometry x="100" y="40" as="geometry">
            <mxPoint x="115" y="110" as="targetPoint" />
          </mxGeometry>
        </mxCell>
        <mxCell id="7" value="Acessar Home" style="" parent="2" vertex="1">
          <mxGeometry x="60" y="110" width="110" height="50" as="geometry" />
        </mxCell>
        <mxCell id="3" value="Interface" style="swimlane;whiteSpace=wrap" parent="1" vertex="1">
          <mxGeometry x="445.5" y="128" width="280" height="572" as="geometry" />
        </mxCell>
        <mxCell id="13" value="" style="ellipse;shape=startState;fillColor=#000000;strokeColor=#b85450;" parent="3" vertex="1">
          <mxGeometry x="60" y="32" width="30" height="30" as="geometry" />
        </mxCell>
        <mxCell id="14" value="" style="edgeStyle=elbowEdgeStyle;elbow=horizontal;verticalAlign=bottom;endArrow=open;endSize=8;strokeColor=#b85450;endFill=1;rounded=0;fillColor=#f8cecc;exitX=0.486;exitY=0.889;exitDx=0;exitDy=0;exitPerimeter=0;entryX=0.511;entryY=-0.01;entryDx=0;entryDy=0;entryPerimeter=0;" parent="3" source="13" target="16" edge="1">
          <mxGeometry x="40" y="20" as="geometry">
            <mxPoint x="75.5" y="112" as="targetPoint" />
          </mxGeometry>
        </mxCell>
        <mxCell id="ueTn9yQbteEruOtS-YW8-73" style="edgeStyle=orthogonalEdgeStyle;rounded=0;jumpSize=2;orthogonalLoop=1;jettySize=auto;html=1;entryX=0.504;entryY=-0.008;entryDx=0;entryDy=0;entryPerimeter=0;strokeWidth=1;fillColor=#f8cecc;strokeColor=#b85450;exitX=0.502;exitY=0.983;exitDx=0;exitDy=0;exitPerimeter=0;" edge="1" parent="3" source="16" target="ueTn9yQbteEruOtS-YW8-72">
          <mxGeometry relative="1" as="geometry">
            <mxPoint x="75.5" y="272" as="sourcePoint" />
          </mxGeometry>
        </mxCell>
        <mxCell id="16" value="Mostrar Informações" style="strokeWidth=1;" parent="3" vertex="1">
          <mxGeometry x="20" y="112" width="110" height="50" as="geometry" />
        </mxCell>
        <mxCell id="ueTn9yQbteEruOtS-YW8-72" value="Verificar Usuário&#xa; Logado" style="strokeWidth=1;" vertex="1" parent="3">
          <mxGeometry x="20" y="312" width="110" height="50" as="geometry" />
        </mxCell>
        <mxCell id="4" value="Aplicativo" style="swimlane;whiteSpace=wrap" parent="1" vertex="1">
          <mxGeometry x="725.5" y="128" width="280" height="572" as="geometry" />
        </mxCell>
        <mxCell id="ueTn9yQbteEruOtS-YW8-53" value="Sim" style="text;html=1;strokeColor=none;fillColor=none;align=center;verticalAlign=middle;whiteSpace=wrap;rounded=0;" vertex="1" parent="4">
          <mxGeometry x="-4.5" y="200" width="60" height="30" as="geometry" />
        </mxCell>
        <mxCell id="ueTn9yQbteEruOtS-YW8-56" value="" style="whiteSpace=wrap;strokeColor=#b85450;fillColor=#f8cecc;" vertex="1" parent="4">
          <mxGeometry x="194" y="252" width="4.5" height="60" as="geometry" />
        </mxCell>
        <mxCell id="ueTn9yQbteEruOtS-YW8-229" value="" style="whiteSpace=wrap;strokeColor=#b85450;fillColor=#f8cecc;rotation=90;" vertex="1" parent="4">
          <mxGeometry x="51" y="140" width="4.5" height="60" as="geometry" />
        </mxCell>
        <mxCell id="ueTn9yQbteEruOtS-YW8-48" style="edgeStyle=orthogonalEdgeStyle;rounded=0;orthogonalLoop=1;jettySize=auto;html=1;entryX=0.013;entryY=0.477;entryDx=0;entryDy=0;entryPerimeter=0;fillColor=#f8cecc;strokeColor=#b85450;exitX=1.002;exitY=0.504;exitDx=0;exitDy=0;exitPerimeter=0;" edge="1" parent="1" source="7" target="16">
          <mxGeometry relative="1" as="geometry">
            <mxPoint x="464.17999999999984" y="262.9000000000001" as="targetPoint" />
          </mxGeometry>
        </mxCell>
        <mxCell id="ueTn9yQbteEruOtS-YW8-64" style="edgeStyle=orthogonalEdgeStyle;rounded=0;jumpSize=2;orthogonalLoop=1;jettySize=auto;html=1;exitX=0;exitY=0.5;exitDx=0;exitDy=0;entryX=0.852;entryY=0.716;entryDx=0;entryDy=0;entryPerimeter=0;strokeWidth=1;fillColor=#f8cecc;strokeColor=#b85450;" edge="1" parent="1" source="21" target="ueTn9yQbteEruOtS-YW8-229">
          <mxGeometry relative="1" as="geometry">
            <mxPoint x="575.3899999999999" y="261.95000000000005" as="targetPoint" />
            <Array as="points">
              <mxPoint x="740" y="350" />
              <mxPoint x="740" y="330" />
              <mxPoint x="766" y="330" />
            </Array>
          </mxGeometry>
        </mxCell>
        <mxCell id="ueTn9yQbteEruOtS-YW8-70" style="edgeStyle=orthogonalEdgeStyle;rounded=0;jumpSize=2;orthogonalLoop=1;jettySize=auto;html=1;entryX=0.323;entryY=0.121;entryDx=0;entryDy=0;strokeWidth=1;fillColor=#f8cecc;strokeColor=#b85450;entryPerimeter=0;" edge="1" parent="1" source="21" target="ueTn9yQbteEruOtS-YW8-229">
          <mxGeometry relative="1" as="geometry">
            <mxPoint x="906.75" y="325" as="targetPoint" />
            <Array as="points">
              <mxPoint x="850" y="350" />
              <mxPoint x="850" y="320" />
              <mxPoint x="802" y="320" />
            </Array>
          </mxGeometry>
        </mxCell>
        <mxCell id="21" value="" style="rhombus;fillColor=#FFFFC0;strokeColor=#b85450;" parent="1" vertex="1">
          <mxGeometry x="769.5" y="330" width="40" height="40" as="geometry" />
        </mxCell>
        <mxCell id="ueTn9yQbteEruOtS-YW8-52" style="edgeStyle=orthogonalEdgeStyle;rounded=0;jumpSize=2;orthogonalLoop=1;jettySize=auto;html=1;entryX=1.258;entryY=0.808;entryDx=0;entryDy=0;strokeWidth=1;exitX=1.013;exitY=0.536;exitDx=0;exitDy=0;exitPerimeter=0;fillColor=#f8cecc;strokeColor=#b85450;entryPerimeter=0;" edge="1" parent="1" source="ueTn9yQbteEruOtS-YW8-72" target="ueTn9yQbteEruOtS-YW8-56">
          <mxGeometry relative="1" as="geometry">
            <Array as="points">
              <mxPoint x="940" y="467" />
              <mxPoint x="940" y="428" />
              <mxPoint x="925" y="428" />
            </Array>
          </mxGeometry>
        </mxCell>
        <mxCell id="ueTn9yQbteEruOtS-YW8-54" value="Não" style="text;html=1;strokeColor=none;fillColor=none;align=center;verticalAlign=middle;whiteSpace=wrap;rounded=0;" vertex="1" parent="1">
          <mxGeometry x="800" y="328" width="60" height="30" as="geometry" />
        </mxCell>
        <mxCell id="ueTn9yQbteEruOtS-YW8-57" style="edgeStyle=orthogonalEdgeStyle;rounded=0;jumpSize=2;orthogonalLoop=1;jettySize=auto;html=1;entryX=0.003;entryY=0.301;entryDx=0;entryDy=0;entryPerimeter=0;strokeWidth=1;fillColor=#f8cecc;strokeColor=#b85450;exitX=0.851;exitY=0.471;exitDx=0;exitDy=0;exitPerimeter=0;" edge="1" parent="1" source="ueTn9yQbteEruOtS-YW8-55" target="ueTn9yQbteEruOtS-YW8-58">
          <mxGeometry relative="1" as="geometry">
            <Array as="points">
              <mxPoint x="847" y="174" />
              <mxPoint x="847" y="225" />
            </Array>
          </mxGeometry>
        </mxCell>
        <mxCell id="ueTn9yQbteEruOtS-YW8-55" value="" style="ellipse;shape=startState;fillColor=#000000;strokeColor=#b85450;" vertex="1" parent="1">
          <mxGeometry x="760" y="160" width="30" height="30" as="geometry" />
        </mxCell>
        <mxCell id="ueTn9yQbteEruOtS-YW8-59" style="edgeStyle=orthogonalEdgeStyle;rounded=0;jumpSize=2;orthogonalLoop=1;jettySize=auto;html=1;strokeWidth=1;fillColor=#f8cecc;strokeColor=#b85450;exitX=0.994;exitY=0.496;exitDx=0;exitDy=0;exitPerimeter=0;entryX=1.312;entryY=0.043;entryDx=0;entryDy=0;entryPerimeter=0;" edge="1" parent="1" source="ueTn9yQbteEruOtS-YW8-58" target="ueTn9yQbteEruOtS-YW8-56">
          <mxGeometry relative="1" as="geometry">
            <mxPoint x="883" y="340" as="targetPoint" />
            <Array as="points">
              <mxPoint x="919" y="185" />
              <mxPoint x="980" y="185" />
              <mxPoint x="980" y="383" />
              <mxPoint x="925" y="383" />
            </Array>
          </mxGeometry>
        </mxCell>
        <mxCell id="ueTn9yQbteEruOtS-YW8-58" value="Banco de dados" style="" vertex="1" parent="1">
          <mxGeometry x="809.5" y="210" width="110" height="50" as="geometry" />
        </mxCell>
        <mxCell id="ueTn9yQbteEruOtS-YW8-65" style="edgeStyle=orthogonalEdgeStyle;rounded=0;jumpSize=2;orthogonalLoop=1;jettySize=auto;html=1;exitX=0;exitY=0;exitDx=0;exitDy=0;entryX=0.5;entryY=1;entryDx=0;entryDy=0;strokeWidth=1;fillColor=#f8cecc;strokeColor=#b85450;" edge="1" parent="1" source="ueTn9yQbteEruOtS-YW8-56" target="21">
          <mxGeometry relative="1" as="geometry">
            <Array as="points">
              <mxPoint x="790" y="410" />
              <mxPoint x="790" y="400" />
              <mxPoint x="790" y="400" />
            </Array>
          </mxGeometry>
        </mxCell>
        <mxCell id="ueTn9yQbteEruOtS-YW8-76" value="Usuário" style="swimlane;whiteSpace=wrap" vertex="1" parent="1">
          <mxGeometry x="1291.5" y="113" width="277.5" height="610" as="geometry" />
        </mxCell>
        <mxCell id="ueTn9yQbteEruOtS-YW8-77" value="" style="ellipse;shape=startState;fillColor=#000000;strokeColor=#b85450;" vertex="1" parent="ueTn9yQbteEruOtS-YW8-76">
          <mxGeometry x="100" y="40" width="30" height="30" as="geometry" />
        </mxCell>
        <mxCell id="ueTn9yQbteEruOtS-YW8-78" value="" style="edgeStyle=elbowEdgeStyle;elbow=horizontal;verticalAlign=bottom;endArrow=open;endSize=8;strokeColor=#b85450;endFill=1;rounded=0;fillColor=#f8cecc;exitX=0.508;exitY=0.872;exitDx=0;exitDy=0;exitPerimeter=0;entryX=0.502;entryY=-0.004;entryDx=0;entryDy=0;entryPerimeter=0;" edge="1" parent="ueTn9yQbteEruOtS-YW8-76" source="ueTn9yQbteEruOtS-YW8-77" target="ueTn9yQbteEruOtS-YW8-79">
          <mxGeometry x="100" y="40" as="geometry">
            <mxPoint x="115" y="110" as="targetPoint" />
          </mxGeometry>
        </mxCell>
        <mxCell id="ueTn9yQbteEruOtS-YW8-79" value="Pagina &#xa;Gerar Eleição" style="" vertex="1" parent="ueTn9yQbteEruOtS-YW8-76">
          <mxGeometry x="60" y="110" width="110" height="50" as="geometry" />
        </mxCell>
        <mxCell id="ueTn9yQbteEruOtS-YW8-80" value="Interface" style="swimlane;whiteSpace=wrap" vertex="1" parent="1">
          <mxGeometry x="1569" y="113" width="340" height="610" as="geometry" />
        </mxCell>
        <mxCell id="ueTn9yQbteEruOtS-YW8-75" value="Gerar Eleição" style="shape=umlFrame;whiteSpace=wrap;html=1;" vertex="1" parent="ueTn9yQbteEruOtS-YW8-80">
          <mxGeometry x="-330" y="-40" width="1030" height="680" as="geometry" />
        </mxCell>
        <mxCell id="ueTn9yQbteEruOtS-YW8-81" value="" style="ellipse;shape=startState;fillColor=#000000;strokeColor=#b85450;" vertex="1" parent="ueTn9yQbteEruOtS-YW8-80">
          <mxGeometry x="60" y="32" width="30" height="30" as="geometry" />
        </mxCell>
        <mxCell id="ueTn9yQbteEruOtS-YW8-82" value="" style="edgeStyle=elbowEdgeStyle;elbow=horizontal;verticalAlign=bottom;endArrow=open;endSize=8;strokeColor=#b85450;endFill=1;rounded=0;fillColor=#f8cecc;entryX=0.507;entryY=-0.002;entryDx=0;entryDy=0;entryPerimeter=0;exitX=0.486;exitY=0.889;exitDx=0;exitDy=0;exitPerimeter=0;" edge="1" parent="ueTn9yQbteEruOtS-YW8-80" source="ueTn9yQbteEruOtS-YW8-81" target="ueTn9yQbteEruOtS-YW8-83">
          <mxGeometry x="40" y="20" as="geometry">
            <mxPoint x="55" y="90" as="targetPoint" />
          </mxGeometry>
        </mxCell>
        <mxCell id="ueTn9yQbteEruOtS-YW8-83" value="Verificar Usuário&#xa; Logado" style="" vertex="1" parent="ueTn9yQbteEruOtS-YW8-80">
          <mxGeometry x="20" y="110" width="110" height="50" as="geometry" />
        </mxCell>
        <mxCell id="ueTn9yQbteEruOtS-YW8-87" value="Formulário" style="strokeWidth=1;" vertex="1" parent="ueTn9yQbteEruOtS-YW8-80">
          <mxGeometry x="20" y="207.5" width="110" height="50" as="geometry" />
        </mxCell>
        <mxCell id="ueTn9yQbteEruOtS-YW8-155" style="edgeStyle=orthogonalEdgeStyle;rounded=0;jumpSize=2;orthogonalLoop=1;jettySize=auto;html=1;entryX=-0.317;entryY=0.708;entryDx=0;entryDy=0;entryPerimeter=0;dashed=1;strokeWidth=1;exitX=0.501;exitY=1.039;exitDx=0;exitDy=0;exitPerimeter=0;fillColor=#f8cecc;strokeColor=#b85450;" edge="1" parent="ueTn9yQbteEruOtS-YW8-80" source="ueTn9yQbteEruOtS-YW8-120" target="ueTn9yQbteEruOtS-YW8-154">
          <mxGeometry relative="1" as="geometry" />
        </mxCell>
        <mxCell id="ueTn9yQbteEruOtS-YW8-120" value="Erro &#xa;de preenchimento" style="strokeWidth=1;" vertex="1" parent="ueTn9yQbteEruOtS-YW8-80">
          <mxGeometry x="20" y="430" width="110" height="50" as="geometry" />
        </mxCell>
        <mxCell id="ueTn9yQbteEruOtS-YW8-117" value="" style="rhombus;fillColor=#FFFFC0;strokeColor=#b85450;" vertex="1" parent="ueTn9yQbteEruOtS-YW8-80">
          <mxGeometry x="109.5" y="320" width="40" height="40" as="geometry" />
        </mxCell>
        <mxCell id="ueTn9yQbteEruOtS-YW8-118" style="edgeStyle=orthogonalEdgeStyle;rounded=0;jumpSize=2;orthogonalLoop=1;jettySize=auto;html=1;entryX=0.5;entryY=0;entryDx=0;entryDy=0;strokeWidth=1;exitX=0.494;exitY=1.017;exitDx=0;exitDy=0;exitPerimeter=0;fillColor=#f8cecc;strokeColor=#b85450;" edge="1" parent="ueTn9yQbteEruOtS-YW8-80" source="ueTn9yQbteEruOtS-YW8-87" target="ueTn9yQbteEruOtS-YW8-117">
          <mxGeometry relative="1" as="geometry">
            <mxPoint x="75.5" y="280" as="sourcePoint" />
          </mxGeometry>
        </mxCell>
        <mxCell id="ueTn9yQbteEruOtS-YW8-121" style="edgeStyle=orthogonalEdgeStyle;rounded=0;jumpSize=2;orthogonalLoop=1;jettySize=auto;html=1;exitX=0;exitY=0.5;exitDx=0;exitDy=0;entryX=0.508;entryY=0.017;entryDx=0;entryDy=0;entryPerimeter=0;strokeWidth=1;fillColor=#f8cecc;strokeColor=#b85450;" edge="1" parent="ueTn9yQbteEruOtS-YW8-80" source="ueTn9yQbteEruOtS-YW8-117" target="ueTn9yQbteEruOtS-YW8-120">
          <mxGeometry relative="1" as="geometry" />
        </mxCell>
        <mxCell id="ueTn9yQbteEruOtS-YW8-137" style="edgeStyle=orthogonalEdgeStyle;rounded=0;jumpSize=2;orthogonalLoop=1;jettySize=auto;html=1;entryX=0.296;entryY=0.006;entryDx=0;entryDy=0;entryPerimeter=0;strokeWidth=1;fillColor=#f8cecc;strokeColor=#b85450;" edge="1" parent="ueTn9yQbteEruOtS-YW8-80" source="ueTn9yQbteEruOtS-YW8-126" target="ueTn9yQbteEruOtS-YW8-136">
          <mxGeometry relative="1" as="geometry" />
        </mxCell>
        <mxCell id="ueTn9yQbteEruOtS-YW8-126" value="" style="whiteSpace=wrap;strokeColor=#b85450;fillColor=#f8cecc;rotation=90;" vertex="1" parent="ueTn9yQbteEruOtS-YW8-80">
          <mxGeometry x="200" y="370" width="4.5" height="60" as="geometry" />
        </mxCell>
        <mxCell id="ueTn9yQbteEruOtS-YW8-123" style="edgeStyle=orthogonalEdgeStyle;rounded=0;jumpSize=2;orthogonalLoop=1;jettySize=auto;html=1;strokeWidth=1;entryX=0.178;entryY=0.703;entryDx=0;entryDy=0;entryPerimeter=0;exitX=1;exitY=0.5;exitDx=0;exitDy=0;fillColor=#f8cecc;strokeColor=#b85450;" edge="1" parent="ueTn9yQbteEruOtS-YW8-80" source="ueTn9yQbteEruOtS-YW8-117" target="ueTn9yQbteEruOtS-YW8-126">
          <mxGeometry relative="1" as="geometry">
            <mxPoint x="114" y="322.6" as="sourcePoint" />
            <mxPoint x="71.35000000000014" y="369.972" as="targetPoint" />
            <Array as="points">
              <mxPoint x="190" y="340" />
            </Array>
          </mxGeometry>
        </mxCell>
        <mxCell id="ueTn9yQbteEruOtS-YW8-131" value="Sim" style="text;html=1;strokeColor=none;fillColor=none;align=center;verticalAlign=middle;whiteSpace=wrap;rounded=0;" vertex="1" parent="ueTn9yQbteEruOtS-YW8-80">
          <mxGeometry x="154.75" y="324" width="30" height="20" as="geometry" />
        </mxCell>
        <mxCell id="ueTn9yQbteEruOtS-YW8-132" value="Não" style="text;html=1;strokeColor=none;fillColor=none;align=center;verticalAlign=middle;whiteSpace=wrap;rounded=0;" vertex="1" parent="ueTn9yQbteEruOtS-YW8-80">
          <mxGeometry x="79.5" y="324" width="30" height="20" as="geometry" />
        </mxCell>
        <mxCell id="ueTn9yQbteEruOtS-YW8-156" style="edgeStyle=orthogonalEdgeStyle;rounded=0;jumpSize=2;orthogonalLoop=1;jettySize=auto;html=1;entryX=-0.163;entryY=0.308;entryDx=0;entryDy=0;entryPerimeter=0;dashed=1;strokeWidth=1;exitX=0.507;exitY=1.018;exitDx=0;exitDy=0;exitPerimeter=0;fillColor=#f8cecc;strokeColor=#b85450;" edge="1" parent="ueTn9yQbteEruOtS-YW8-80" source="ueTn9yQbteEruOtS-YW8-136" target="ueTn9yQbteEruOtS-YW8-154">
          <mxGeometry relative="1" as="geometry" />
        </mxCell>
        <mxCell id="ueTn9yQbteEruOtS-YW8-136" value="Eleição Criada&#xa;com &#xa;Sucesso" style="strokeWidth=1;" vertex="1" parent="ueTn9yQbteEruOtS-YW8-80">
          <mxGeometry x="170" y="430" width="110" height="50" as="geometry" />
        </mxCell>
        <mxCell id="ueTn9yQbteEruOtS-YW8-164" style="edgeStyle=orthogonalEdgeStyle;rounded=0;jumpSize=2;orthogonalLoop=1;jettySize=auto;html=1;entryX=0.501;entryY=0.005;entryDx=0;entryDy=0;entryPerimeter=0;strokeWidth=1;fillColor=#f8cecc;strokeColor=#b85450;" edge="1" parent="ueTn9yQbteEruOtS-YW8-80" source="ueTn9yQbteEruOtS-YW8-154" target="ueTn9yQbteEruOtS-YW8-157">
          <mxGeometry relative="1" as="geometry" />
        </mxCell>
        <mxCell id="ueTn9yQbteEruOtS-YW8-154" value="" style="whiteSpace=wrap;strokeColor=#b85450;fillColor=#f8cecc;rotation=90;" vertex="1" parent="ueTn9yQbteEruOtS-YW8-80">
          <mxGeometry x="149.5" y="490" width="4.5" height="60" as="geometry" />
        </mxCell>
        <mxCell id="ueTn9yQbteEruOtS-YW8-165" style="edgeStyle=orthogonalEdgeStyle;rounded=0;jumpSize=2;orthogonalLoop=1;jettySize=auto;html=1;entryX=0.346;entryY=1.01;entryDx=0;entryDy=0;entryPerimeter=0;strokeWidth=1;exitX=-0.004;exitY=0.482;exitDx=0;exitDy=0;exitPerimeter=0;fillColor=#f8cecc;strokeColor=#b85450;" edge="1" parent="ueTn9yQbteEruOtS-YW8-80" source="ueTn9yQbteEruOtS-YW8-157" target="ueTn9yQbteEruOtS-YW8-87">
          <mxGeometry relative="1" as="geometry">
            <Array as="points">
              <mxPoint x="10" y="566" />
              <mxPoint x="10" y="404" />
              <mxPoint x="58" y="404" />
            </Array>
          </mxGeometry>
        </mxCell>
        <mxCell id="ueTn9yQbteEruOtS-YW8-157" value="Balão de Msg" style="strokeWidth=1;" vertex="1" parent="ueTn9yQbteEruOtS-YW8-80">
          <mxGeometry x="96.75" y="542" width="110" height="50" as="geometry" />
        </mxCell>
        <mxCell id="ueTn9yQbteEruOtS-YW8-91" value="" style="ellipse;html=1;shape=endState;fillColor=#000000;strokeColor=#b85450;strokeWidth=1;" vertex="1" parent="ueTn9yQbteEruOtS-YW8-80">
          <mxGeometry x="295" y="177.5" width="30" height="30" as="geometry" />
        </mxCell>
        <mxCell id="ueTn9yQbteEruOtS-YW8-103" value="Pag/Login" style="text;html=1;strokeColor=none;fillColor=none;align=center;verticalAlign=middle;whiteSpace=wrap;rounded=0;" vertex="1" parent="ueTn9yQbteEruOtS-YW8-80">
          <mxGeometry x="281" y="199" width="60" height="30" as="geometry" />
        </mxCell>
        <mxCell id="ueTn9yQbteEruOtS-YW8-88" value="Aplicativo" style="swimlane;whiteSpace=wrap" vertex="1" parent="1">
          <mxGeometry x="1909" y="113" width="300" height="610" as="geometry" />
        </mxCell>
        <mxCell id="ueTn9yQbteEruOtS-YW8-89" value="Sim" style="text;html=1;strokeColor=none;fillColor=none;align=center;verticalAlign=middle;whiteSpace=wrap;rounded=0;" vertex="1" parent="ueTn9yQbteEruOtS-YW8-88">
          <mxGeometry x="-4.5" y="204" width="60" height="30" as="geometry" />
        </mxCell>
        <mxCell id="ueTn9yQbteEruOtS-YW8-90" value="" style="whiteSpace=wrap;strokeColor=#b85450;fillColor=#f8cecc;" vertex="1" parent="ueTn9yQbteEruOtS-YW8-88">
          <mxGeometry x="189.5" y="257" width="4.5" height="60" as="geometry" />
        </mxCell>
        <mxCell id="ueTn9yQbteEruOtS-YW8-107" value="" style="whiteSpace=wrap;strokeColor=#b85450;fillColor=#f8cecc;" vertex="1" parent="ueTn9yQbteEruOtS-YW8-88">
          <mxGeometry x="194" y="347.5" width="4.5" height="60" as="geometry" />
        </mxCell>
        <mxCell id="ueTn9yQbteEruOtS-YW8-142" style="edgeStyle=orthogonalEdgeStyle;rounded=0;jumpSize=2;orthogonalLoop=1;jettySize=auto;html=1;entryX=-0.021;entryY=0.516;entryDx=0;entryDy=0;entryPerimeter=0;strokeWidth=1;fillColor=#f8cecc;strokeColor=#b85450;" edge="1" parent="ueTn9yQbteEruOtS-YW8-88" source="ueTn9yQbteEruOtS-YW8-99" target="ueTn9yQbteEruOtS-YW8-140">
          <mxGeometry relative="1" as="geometry">
            <Array as="points">
              <mxPoint x="49" y="30" />
              <mxPoint x="104" y="30" />
              <mxPoint x="104" y="66" />
            </Array>
          </mxGeometry>
        </mxCell>
        <mxCell id="ueTn9yQbteEruOtS-YW8-143" style="edgeStyle=orthogonalEdgeStyle;rounded=0;jumpSize=2;orthogonalLoop=1;jettySize=auto;html=1;entryX=0.505;entryY=-0.005;entryDx=0;entryDy=0;entryPerimeter=0;strokeWidth=1;fillColor=#f8cecc;strokeColor=#b85450;exitX=0.473;exitY=0.11;exitDx=0;exitDy=0;exitPerimeter=0;" edge="1" parent="ueTn9yQbteEruOtS-YW8-88" source="ueTn9yQbteEruOtS-YW8-99" target="ueTn9yQbteEruOtS-YW8-140">
          <mxGeometry relative="1" as="geometry">
            <mxPoint x="49" y="43" as="sourcePoint" />
            <mxPoint x="181.97000000000025" y="103.64999999999998" as="targetPoint" />
            <Array as="points">
              <mxPoint x="48" y="30" />
              <mxPoint x="180" y="30" />
            </Array>
          </mxGeometry>
        </mxCell>
        <mxCell id="ueTn9yQbteEruOtS-YW8-99" value="" style="ellipse;shape=startState;fillColor=#000000;strokeColor=#b85450;" vertex="1" parent="ueTn9yQbteEruOtS-YW8-88">
          <mxGeometry x="34" y="40" width="30" height="30" as="geometry" />
        </mxCell>
        <mxCell id="ueTn9yQbteEruOtS-YW8-145" style="edgeStyle=orthogonalEdgeStyle;rounded=0;jumpSize=2;orthogonalLoop=1;jettySize=auto;html=1;entryX=1.045;entryY=0.713;entryDx=0;entryDy=0;entryPerimeter=0;strokeWidth=1;exitX=1.002;exitY=0.516;exitDx=0;exitDy=0;exitPerimeter=0;fillColor=#f8cecc;strokeColor=#b85450;" edge="1" parent="ueTn9yQbteEruOtS-YW8-88" source="ueTn9yQbteEruOtS-YW8-140" target="ueTn9yQbteEruOtS-YW8-107">
          <mxGeometry relative="1" as="geometry">
            <Array as="points">
              <mxPoint x="274" y="66" />
              <mxPoint x="274" y="390" />
              <mxPoint x="199" y="390" />
            </Array>
          </mxGeometry>
        </mxCell>
        <mxCell id="ueTn9yQbteEruOtS-YW8-147" style="edgeStyle=orthogonalEdgeStyle;rounded=0;jumpSize=2;orthogonalLoop=1;jettySize=auto;html=1;entryX=1.112;entryY=0.657;entryDx=0;entryDy=0;entryPerimeter=0;strokeWidth=1;exitX=0.498;exitY=1.014;exitDx=0;exitDy=0;exitPerimeter=0;fillColor=#f8cecc;strokeColor=#b85450;" edge="1" parent="ueTn9yQbteEruOtS-YW8-88" source="ueTn9yQbteEruOtS-YW8-140" target="ueTn9yQbteEruOtS-YW8-90">
          <mxGeometry relative="1" as="geometry">
            <mxPoint x="179" y="60" as="sourcePoint" />
            <mxPoint x="198.48649999999998" y="295.96000000000004" as="targetPoint" />
            <Array as="points">
              <mxPoint x="179" y="95" />
              <mxPoint x="114" y="95" />
              <mxPoint x="114" y="166" />
              <mxPoint x="254" y="166" />
              <mxPoint x="254" y="296" />
            </Array>
          </mxGeometry>
        </mxCell>
        <mxCell id="ueTn9yQbteEruOtS-YW8-140" value="Banco de Dados" style="" vertex="1" parent="ueTn9yQbteEruOtS-YW8-88">
          <mxGeometry x="124" y="40" width="110" height="50" as="geometry" />
        </mxCell>
        <mxCell id="ueTn9yQbteEruOtS-YW8-148" style="edgeStyle=orthogonalEdgeStyle;rounded=0;jumpSize=2;orthogonalLoop=1;jettySize=auto;html=1;entryX=1.032;entryY=0.222;entryDx=0;entryDy=0;entryPerimeter=0;strokeWidth=1;fillColor=#f8cecc;strokeColor=#b85450;" edge="1" parent="ueTn9yQbteEruOtS-YW8-88" source="ueTn9yQbteEruOtS-YW8-141" target="ueTn9yQbteEruOtS-YW8-107">
          <mxGeometry relative="1" as="geometry">
            <Array as="points">
              <mxPoint x="264" y="125" />
              <mxPoint x="264" y="361" />
            </Array>
          </mxGeometry>
        </mxCell>
        <mxCell id="ueTn9yQbteEruOtS-YW8-141" value="Servidor" style="" vertex="1" parent="ueTn9yQbteEruOtS-YW8-88">
          <mxGeometry x="124" y="100" width="110" height="50" as="geometry" />
        </mxCell>
        <mxCell id="ueTn9yQbteEruOtS-YW8-92" style="edgeStyle=orthogonalEdgeStyle;rounded=0;orthogonalLoop=1;jettySize=auto;html=1;entryX=-0.012;entryY=0.498;entryDx=0;entryDy=0;entryPerimeter=0;fillColor=#f8cecc;strokeColor=#b85450;exitX=1.002;exitY=0.504;exitDx=0;exitDy=0;exitPerimeter=0;" edge="1" parent="1" source="ueTn9yQbteEruOtS-YW8-79" target="ueTn9yQbteEruOtS-YW8-83">
          <mxGeometry relative="1" as="geometry" />
        </mxCell>
        <mxCell id="ueTn9yQbteEruOtS-YW8-93" style="edgeStyle=orthogonalEdgeStyle;rounded=0;jumpSize=2;orthogonalLoop=1;jettySize=auto;html=1;exitX=0;exitY=0.5;exitDx=0;exitDy=0;entryX=0.451;entryY=-0.068;entryDx=0;entryDy=0;entryPerimeter=0;strokeWidth=1;fillColor=#f8cecc;strokeColor=#b85450;" edge="1" parent="1" source="ueTn9yQbteEruOtS-YW8-95" target="ueTn9yQbteEruOtS-YW8-113">
          <mxGeometry relative="1" as="geometry">
            <Array as="points">
              <mxPoint x="1948" y="353" />
              <mxPoint x="1840" y="353" />
              <mxPoint x="1840" y="303" />
              <mxPoint x="1399" y="303" />
            </Array>
          </mxGeometry>
        </mxCell>
        <mxCell id="ueTn9yQbteEruOtS-YW8-94" style="edgeStyle=orthogonalEdgeStyle;rounded=0;jumpSize=2;orthogonalLoop=1;jettySize=auto;html=1;entryX=1;entryY=0.5;entryDx=0;entryDy=0;strokeWidth=1;fillColor=#f8cecc;strokeColor=#b85450;" edge="1" parent="1" source="ueTn9yQbteEruOtS-YW8-95" target="ueTn9yQbteEruOtS-YW8-91">
          <mxGeometry relative="1" as="geometry">
            <Array as="points">
              <mxPoint x="2030" y="349" />
              <mxPoint x="2030" y="306" />
            </Array>
          </mxGeometry>
        </mxCell>
        <mxCell id="ueTn9yQbteEruOtS-YW8-95" value="" style="rhombus;fillColor=#FFFFC0;strokeColor=#b85450;" vertex="1" parent="1">
          <mxGeometry x="1947.5" y="328.5" width="40" height="40" as="geometry" />
        </mxCell>
        <mxCell id="ueTn9yQbteEruOtS-YW8-96" style="edgeStyle=orthogonalEdgeStyle;rounded=0;jumpSize=2;orthogonalLoop=1;jettySize=auto;html=1;entryX=1.18;entryY=0.26;entryDx=0;entryDy=0;strokeWidth=1;fillColor=#f8cecc;strokeColor=#b85450;entryPerimeter=0;exitX=1;exitY=0.005;exitDx=0;exitDy=0;exitPerimeter=0;" edge="1" parent="1" source="ueTn9yQbteEruOtS-YW8-83" target="ueTn9yQbteEruOtS-YW8-90">
          <mxGeometry relative="1" as="geometry">
            <Array as="points">
              <mxPoint x="1699" y="236" />
              <mxPoint x="1869" y="236" />
              <mxPoint x="1869" y="283" />
              <mxPoint x="2139" y="283" />
              <mxPoint x="2139" y="380" />
              <mxPoint x="2120" y="380" />
              <mxPoint x="2120" y="386" />
            </Array>
            <mxPoint x="1699" y="243" as="sourcePoint" />
          </mxGeometry>
        </mxCell>
        <mxCell id="ueTn9yQbteEruOtS-YW8-97" value="Não" style="text;html=1;strokeColor=none;fillColor=none;align=center;verticalAlign=middle;whiteSpace=wrap;rounded=0;" vertex="1" parent="1">
          <mxGeometry x="1978" y="324" width="60" height="30" as="geometry" />
        </mxCell>
        <mxCell id="ueTn9yQbteEruOtS-YW8-102" style="edgeStyle=orthogonalEdgeStyle;rounded=0;jumpSize=2;orthogonalLoop=1;jettySize=auto;html=1;entryX=0.5;entryY=1;entryDx=0;entryDy=0;strokeWidth=1;fillColor=#f8cecc;strokeColor=#b85450;exitX=0.061;exitY=0.537;exitDx=0;exitDy=0;exitPerimeter=0;" edge="1" parent="1" source="ueTn9yQbteEruOtS-YW8-90" target="ueTn9yQbteEruOtS-YW8-95">
          <mxGeometry relative="1" as="geometry">
            <Array as="points">
              <mxPoint x="2097" y="402" />
              <mxPoint x="1968" y="403" />
              <mxPoint x="1968" y="393" />
              <mxPoint x="1967" y="393" />
            </Array>
            <mxPoint x="2099" y="403" as="sourcePoint" />
          </mxGeometry>
        </mxCell>
        <mxCell id="ueTn9yQbteEruOtS-YW8-108" style="edgeStyle=orthogonalEdgeStyle;rounded=0;jumpSize=2;orthogonalLoop=1;jettySize=auto;html=1;entryX=0.994;entryY=0.346;entryDx=0;entryDy=0;entryPerimeter=0;strokeWidth=1;fillColor=#f8cecc;strokeColor=#b85450;dashed=1;exitX=0.267;exitY=0.68;exitDx=0;exitDy=0;exitPerimeter=0;" edge="1" parent="1" source="ueTn9yQbteEruOtS-YW8-107" target="ueTn9yQbteEruOtS-YW8-87">
          <mxGeometry relative="1" as="geometry">
            <mxPoint x="2089" y="493" as="sourcePoint" />
            <mxPoint x="1962.94" y="502.8499999999999" as="targetPoint" />
            <Array as="points">
              <mxPoint x="2079" y="501" />
              <mxPoint x="2079" y="473" />
              <mxPoint x="1819" y="473" />
              <mxPoint x="1819" y="338" />
            </Array>
          </mxGeometry>
        </mxCell>
        <mxCell id="ueTn9yQbteEruOtS-YW8-116" style="edgeStyle=orthogonalEdgeStyle;rounded=0;jumpSize=2;orthogonalLoop=1;jettySize=auto;html=1;entryX=0.007;entryY=0.489;entryDx=0;entryDy=0;entryPerimeter=0;strokeWidth=1;fillColor=#f8cecc;strokeColor=#b85450;" edge="1" parent="1" source="ueTn9yQbteEruOtS-YW8-113" target="ueTn9yQbteEruOtS-YW8-87">
          <mxGeometry relative="1" as="geometry" />
        </mxCell>
        <mxCell id="ueTn9yQbteEruOtS-YW8-113" value="Interagir" style="strokeWidth=1;" vertex="1" parent="1">
          <mxGeometry x="1349" y="333" width="110" height="50" as="geometry" />
        </mxCell>
        <mxCell id="ueTn9yQbteEruOtS-YW8-153" style="edgeStyle=orthogonalEdgeStyle;rounded=0;jumpSize=2;orthogonalLoop=1;jettySize=auto;html=1;entryX=1.006;entryY=0.271;entryDx=0;entryDy=0;entryPerimeter=0;strokeWidth=1;dashed=1;fillColor=#f8cecc;strokeColor=#b85450;exitX=1.041;exitY=0.2;exitDx=0;exitDy=0;exitPerimeter=0;" edge="1" parent="1" source="ueTn9yQbteEruOtS-YW8-126" target="ueTn9yQbteEruOtS-YW8-140">
          <mxGeometry relative="1" as="geometry">
            <mxPoint x="1789" y="513" as="sourcePoint" />
            <Array as="points">
              <mxPoint x="1789" y="533" />
              <mxPoint x="2189" y="533" />
              <mxPoint x="2189" y="167" />
            </Array>
          </mxGeometry>
        </mxCell>
        <mxCell id="ueTn9yQbteEruOtS-YW8-166" value="Usuário" style="swimlane;whiteSpace=wrap" vertex="1" parent="1">
          <mxGeometry x="2430" y="130" width="290" height="610" as="geometry" />
        </mxCell>
        <mxCell id="ueTn9yQbteEruOtS-YW8-167" value="" style="ellipse;shape=startState;fillColor=#000000;strokeColor=#b85450;" vertex="1" parent="ueTn9yQbteEruOtS-YW8-166">
          <mxGeometry x="100" y="40" width="30" height="30" as="geometry" />
        </mxCell>
        <mxCell id="ueTn9yQbteEruOtS-YW8-168" value="" style="edgeStyle=elbowEdgeStyle;elbow=horizontal;verticalAlign=bottom;endArrow=open;endSize=8;strokeColor=#b85450;endFill=1;rounded=0;fillColor=#f8cecc;exitX=0.508;exitY=0.872;exitDx=0;exitDy=0;exitPerimeter=0;entryX=0.502;entryY=-0.004;entryDx=0;entryDy=0;entryPerimeter=0;" edge="1" parent="ueTn9yQbteEruOtS-YW8-166" source="ueTn9yQbteEruOtS-YW8-167" target="ueTn9yQbteEruOtS-YW8-169">
          <mxGeometry x="100" y="40" as="geometry">
            <mxPoint x="115" y="110" as="targetPoint" />
          </mxGeometry>
        </mxCell>
        <mxCell id="ueTn9yQbteEruOtS-YW8-169" value="Pagina &#xa;Gerar Eleição" style="" vertex="1" parent="ueTn9yQbteEruOtS-YW8-166">
          <mxGeometry x="60" y="110" width="110" height="50" as="geometry" />
        </mxCell>
        <mxCell id="ueTn9yQbteEruOtS-YW8-192" value="Aplicativo" style="swimlane;whiteSpace=wrap" vertex="1" parent="1">
          <mxGeometry x="3050" y="130" width="297.5" height="610" as="geometry" />
        </mxCell>
        <mxCell id="ueTn9yQbteEruOtS-YW8-193" value="Sim" style="text;html=1;strokeColor=none;fillColor=none;align=center;verticalAlign=middle;whiteSpace=wrap;rounded=0;" vertex="1" parent="ueTn9yQbteEruOtS-YW8-192">
          <mxGeometry x="-4.5" y="204" width="60" height="30" as="geometry" />
        </mxCell>
        <mxCell id="ueTn9yQbteEruOtS-YW8-194" value="" style="whiteSpace=wrap;strokeColor=#b85450;fillColor=#f8cecc;" vertex="1" parent="ueTn9yQbteEruOtS-YW8-192">
          <mxGeometry x="194" y="253" width="4.5" height="60" as="geometry" />
        </mxCell>
        <mxCell id="ueTn9yQbteEruOtS-YW8-196" value="" style="whiteSpace=wrap;strokeColor=#b85450;fillColor=#f8cecc;" vertex="1" parent="ueTn9yQbteEruOtS-YW8-192">
          <mxGeometry x="194" y="347.5" width="4.5" height="60" as="geometry" />
        </mxCell>
        <mxCell id="ueTn9yQbteEruOtS-YW8-197" style="edgeStyle=orthogonalEdgeStyle;rounded=0;jumpSize=2;orthogonalLoop=1;jettySize=auto;html=1;entryX=-0.021;entryY=0.516;entryDx=0;entryDy=0;entryPerimeter=0;strokeWidth=1;fillColor=#f8cecc;strokeColor=#b85450;" edge="1" parent="ueTn9yQbteEruOtS-YW8-192" source="ueTn9yQbteEruOtS-YW8-199" target="ueTn9yQbteEruOtS-YW8-202">
          <mxGeometry relative="1" as="geometry">
            <Array as="points">
              <mxPoint x="49" y="30" />
              <mxPoint x="104" y="30" />
              <mxPoint x="104" y="66" />
            </Array>
          </mxGeometry>
        </mxCell>
        <mxCell id="ueTn9yQbteEruOtS-YW8-198" style="edgeStyle=orthogonalEdgeStyle;rounded=0;jumpSize=2;orthogonalLoop=1;jettySize=auto;html=1;entryX=0.505;entryY=-0.005;entryDx=0;entryDy=0;entryPerimeter=0;strokeWidth=1;fillColor=#f8cecc;strokeColor=#b85450;exitX=0.473;exitY=0.11;exitDx=0;exitDy=0;exitPerimeter=0;" edge="1" parent="ueTn9yQbteEruOtS-YW8-192" source="ueTn9yQbteEruOtS-YW8-199" target="ueTn9yQbteEruOtS-YW8-202">
          <mxGeometry relative="1" as="geometry">
            <mxPoint x="49" y="43" as="sourcePoint" />
            <mxPoint x="181.97000000000025" y="103.64999999999998" as="targetPoint" />
            <Array as="points">
              <mxPoint x="48" y="30" />
              <mxPoint x="180" y="30" />
            </Array>
          </mxGeometry>
        </mxCell>
        <mxCell id="ueTn9yQbteEruOtS-YW8-199" value="" style="ellipse;shape=startState;fillColor=#000000;strokeColor=#b85450;" vertex="1" parent="ueTn9yQbteEruOtS-YW8-192">
          <mxGeometry x="34" y="40" width="30" height="30" as="geometry" />
        </mxCell>
        <mxCell id="ueTn9yQbteEruOtS-YW8-200" style="edgeStyle=orthogonalEdgeStyle;rounded=0;jumpSize=2;orthogonalLoop=1;jettySize=auto;html=1;entryX=1.045;entryY=0.713;entryDx=0;entryDy=0;entryPerimeter=0;strokeWidth=1;exitX=1.002;exitY=0.516;exitDx=0;exitDy=0;exitPerimeter=0;fillColor=#f8cecc;strokeColor=#b85450;" edge="1" parent="ueTn9yQbteEruOtS-YW8-192" source="ueTn9yQbteEruOtS-YW8-202" target="ueTn9yQbteEruOtS-YW8-196">
          <mxGeometry relative="1" as="geometry">
            <Array as="points">
              <mxPoint x="274" y="66" />
              <mxPoint x="274" y="390" />
              <mxPoint x="199" y="390" />
            </Array>
          </mxGeometry>
        </mxCell>
        <mxCell id="ueTn9yQbteEruOtS-YW8-201" style="edgeStyle=orthogonalEdgeStyle;rounded=0;jumpSize=2;orthogonalLoop=1;jettySize=auto;html=1;entryX=0.922;entryY=0.711;entryDx=0;entryDy=0;entryPerimeter=0;strokeWidth=1;exitX=0.498;exitY=1.014;exitDx=0;exitDy=0;exitPerimeter=0;fillColor=#f8cecc;strokeColor=#b85450;" edge="1" parent="ueTn9yQbteEruOtS-YW8-192" source="ueTn9yQbteEruOtS-YW8-202" target="ueTn9yQbteEruOtS-YW8-194">
          <mxGeometry relative="1" as="geometry">
            <mxPoint x="179" y="60" as="sourcePoint" />
            <mxPoint x="198.48649999999998" y="295.96000000000004" as="targetPoint" />
            <Array as="points">
              <mxPoint x="179" y="95" />
              <mxPoint x="114" y="95" />
              <mxPoint x="114" y="166" />
              <mxPoint x="254" y="166" />
              <mxPoint x="254" y="296" />
            </Array>
          </mxGeometry>
        </mxCell>
        <mxCell id="ueTn9yQbteEruOtS-YW8-202" value="Banco de Dados" style="" vertex="1" parent="ueTn9yQbteEruOtS-YW8-192">
          <mxGeometry x="124" y="40" width="110" height="50" as="geometry" />
        </mxCell>
        <mxCell id="ueTn9yQbteEruOtS-YW8-203" style="edgeStyle=orthogonalEdgeStyle;rounded=0;jumpSize=2;orthogonalLoop=1;jettySize=auto;html=1;entryX=1.032;entryY=0.222;entryDx=0;entryDy=0;entryPerimeter=0;strokeWidth=1;fillColor=#f8cecc;strokeColor=#b85450;" edge="1" parent="ueTn9yQbteEruOtS-YW8-192" source="ueTn9yQbteEruOtS-YW8-204" target="ueTn9yQbteEruOtS-YW8-196">
          <mxGeometry relative="1" as="geometry">
            <Array as="points">
              <mxPoint x="264" y="125" />
              <mxPoint x="264" y="361" />
            </Array>
          </mxGeometry>
        </mxCell>
        <mxCell id="ueTn9yQbteEruOtS-YW8-204" value="Servidor" style="" vertex="1" parent="ueTn9yQbteEruOtS-YW8-192">
          <mxGeometry x="124" y="100" width="110" height="50" as="geometry" />
        </mxCell>
        <mxCell id="ueTn9yQbteEruOtS-YW8-217" value="Filtrar &#xa;Interação/Paginação&#xa;da Lista" style="strokeWidth=1;" vertex="1" parent="ueTn9yQbteEruOtS-YW8-192">
          <mxGeometry x="40" y="348.5" width="120" height="50" as="geometry" />
        </mxCell>
        <mxCell id="ueTn9yQbteEruOtS-YW8-220" style="edgeStyle=orthogonalEdgeStyle;rounded=0;jumpSize=2;orthogonalLoop=1;jettySize=auto;html=1;exitX=0;exitY=0;exitDx=0;exitDy=0;entryX=1.013;entryY=0.58;entryDx=0;entryDy=0;entryPerimeter=0;strokeWidth=1;dashed=1;fillColor=#f8cecc;strokeColor=#b85450;" edge="1" parent="ueTn9yQbteEruOtS-YW8-192" source="ueTn9yQbteEruOtS-YW8-196" target="ueTn9yQbteEruOtS-YW8-217">
          <mxGeometry relative="1" as="geometry" />
        </mxCell>
        <mxCell id="ueTn9yQbteEruOtS-YW8-205" style="edgeStyle=orthogonalEdgeStyle;rounded=0;orthogonalLoop=1;jettySize=auto;html=1;entryX=-0.012;entryY=0.498;entryDx=0;entryDy=0;entryPerimeter=0;fillColor=#f8cecc;strokeColor=#b85450;exitX=1.002;exitY=0.504;exitDx=0;exitDy=0;exitPerimeter=0;" edge="1" parent="1" source="ueTn9yQbteEruOtS-YW8-169" target="ueTn9yQbteEruOtS-YW8-174">
          <mxGeometry relative="1" as="geometry" />
        </mxCell>
        <mxCell id="ueTn9yQbteEruOtS-YW8-206" style="edgeStyle=orthogonalEdgeStyle;rounded=0;jumpSize=2;orthogonalLoop=1;jettySize=auto;html=1;exitX=0;exitY=0.5;exitDx=0;exitDy=0;entryX=0.451;entryY=-0.068;entryDx=0;entryDy=0;entryPerimeter=0;strokeWidth=1;fillColor=#f8cecc;strokeColor=#b85450;" edge="1" parent="1" source="ueTn9yQbteEruOtS-YW8-208" target="ueTn9yQbteEruOtS-YW8-215">
          <mxGeometry relative="1" as="geometry">
            <Array as="points">
              <mxPoint x="3086" y="370" />
              <mxPoint x="2970" y="370" />
              <mxPoint x="2970" y="320" />
              <mxPoint x="2537" y="320" />
            </Array>
          </mxGeometry>
        </mxCell>
        <mxCell id="ueTn9yQbteEruOtS-YW8-207" style="edgeStyle=orthogonalEdgeStyle;rounded=0;jumpSize=2;orthogonalLoop=1;jettySize=auto;html=1;entryX=1;entryY=0.5;entryDx=0;entryDy=0;strokeWidth=1;fillColor=#f8cecc;strokeColor=#b85450;" edge="1" parent="1" source="ueTn9yQbteEruOtS-YW8-208" target="ueTn9yQbteEruOtS-YW8-195">
          <mxGeometry relative="1" as="geometry">
            <Array as="points">
              <mxPoint x="3180" y="366" />
              <mxPoint x="3180" y="325" />
            </Array>
          </mxGeometry>
        </mxCell>
        <mxCell id="ueTn9yQbteEruOtS-YW8-208" value="" style="rhombus;fillColor=#FFFFC0;strokeColor=#b85450;" vertex="1" parent="1">
          <mxGeometry x="3086" y="345.5" width="40" height="40" as="geometry" />
        </mxCell>
        <mxCell id="ueTn9yQbteEruOtS-YW8-209" style="edgeStyle=orthogonalEdgeStyle;rounded=0;jumpSize=2;orthogonalLoop=1;jettySize=auto;html=1;entryX=1.18;entryY=0.26;entryDx=0;entryDy=0;strokeWidth=1;fillColor=#f8cecc;strokeColor=#b85450;entryPerimeter=0;exitX=1;exitY=0.005;exitDx=0;exitDy=0;exitPerimeter=0;" edge="1" parent="1" source="ueTn9yQbteEruOtS-YW8-174" target="ueTn9yQbteEruOtS-YW8-194">
          <mxGeometry relative="1" as="geometry">
            <Array as="points">
              <mxPoint x="2837.5" y="253" />
              <mxPoint x="3007.5" y="253" />
              <mxPoint x="3007.5" y="300" />
              <mxPoint x="3277.5" y="300" />
              <mxPoint x="3277.5" y="398" />
              <mxPoint x="3242.5" y="398" />
            </Array>
            <mxPoint x="2837.5" y="260" as="sourcePoint" />
          </mxGeometry>
        </mxCell>
        <mxCell id="ueTn9yQbteEruOtS-YW8-210" value="Não" style="text;html=1;strokeColor=none;fillColor=none;align=center;verticalAlign=middle;whiteSpace=wrap;rounded=0;" vertex="1" parent="1">
          <mxGeometry x="3116.5" y="341" width="60" height="30" as="geometry" />
        </mxCell>
        <mxCell id="ueTn9yQbteEruOtS-YW8-211" style="edgeStyle=orthogonalEdgeStyle;rounded=0;jumpSize=2;orthogonalLoop=1;jettySize=auto;html=1;entryX=0.5;entryY=1;entryDx=0;entryDy=0;strokeWidth=1;fillColor=#f8cecc;strokeColor=#b85450;exitX=-0.004;exitY=0.635;exitDx=0;exitDy=0;exitPerimeter=0;" edge="1" parent="1" target="ueTn9yQbteEruOtS-YW8-208" source="ueTn9yQbteEruOtS-YW8-194">
          <mxGeometry relative="1" as="geometry">
            <Array as="points">
              <mxPoint x="3106" y="420" />
              <mxPoint x="3106" y="410" />
              <mxPoint x="3106" y="410" />
            </Array>
            <mxPoint x="3237.5" y="420" as="sourcePoint" />
          </mxGeometry>
        </mxCell>
        <mxCell id="ueTn9yQbteEruOtS-YW8-214" style="edgeStyle=orthogonalEdgeStyle;rounded=0;jumpSize=2;orthogonalLoop=1;jettySize=auto;html=1;entryX=0.007;entryY=0.489;entryDx=0;entryDy=0;entryPerimeter=0;strokeWidth=1;fillColor=#f8cecc;strokeColor=#b85450;" edge="1" parent="1" source="ueTn9yQbteEruOtS-YW8-215" target="ueTn9yQbteEruOtS-YW8-175">
          <mxGeometry relative="1" as="geometry" />
        </mxCell>
        <mxCell id="ueTn9yQbteEruOtS-YW8-215" value="Interagir" style="strokeWidth=1;" vertex="1" parent="1">
          <mxGeometry x="2487.5" y="350" width="110" height="50" as="geometry" />
        </mxCell>
        <mxCell id="ueTn9yQbteEruOtS-YW8-227" style="edgeStyle=orthogonalEdgeStyle;rounded=0;jumpSize=2;orthogonalLoop=1;jettySize=auto;html=1;entryX=1.009;entryY=0.43;entryDx=0;entryDy=0;entryPerimeter=0;strokeWidth=1;fillColor=#f8cecc;strokeColor=#b85450;" edge="1" parent="1" target="ueTn9yQbteEruOtS-YW8-175">
          <mxGeometry relative="1" as="geometry">
            <mxPoint x="3090" y="504" as="sourcePoint" />
            <Array as="points">
              <mxPoint x="2950" y="504" />
              <mxPoint x="2950" y="372" />
            </Array>
          </mxGeometry>
        </mxCell>
        <mxCell id="ueTn9yQbteEruOtS-YW8-231" style="edgeStyle=orthogonalEdgeStyle;rounded=0;jumpSize=2;orthogonalLoop=1;jettySize=auto;html=1;entryX=0.998;entryY=0.532;entryDx=0;entryDy=0;entryPerimeter=0;strokeWidth=1;fillColor=#f8cecc;strokeColor=#b85450;exitX=0;exitY=0;exitDx=0;exitDy=0;" edge="1" parent="1" source="ueTn9yQbteEruOtS-YW8-229" target="16">
          <mxGeometry relative="1" as="geometry">
            <mxPoint x="780" y="290" as="sourcePoint" />
            <Array as="points">
              <mxPoint x="779" y="290" />
              <mxPoint x="779" y="267" />
            </Array>
          </mxGeometry>
        </mxCell>
        <mxCell id="ueTn9yQbteEruOtS-YW8-271" value="Usuário" style="swimlane;whiteSpace=wrap" vertex="1" parent="1">
          <mxGeometry x="1330" y="910" width="277.5" height="650" as="geometry" />
        </mxCell>
        <mxCell id="ueTn9yQbteEruOtS-YW8-272" value="" style="ellipse;shape=startState;fillColor=#000000;strokeColor=#b85450;" vertex="1" parent="ueTn9yQbteEruOtS-YW8-271">
          <mxGeometry x="100" y="40" width="30" height="30" as="geometry" />
        </mxCell>
        <mxCell id="ueTn9yQbteEruOtS-YW8-273" value="" style="edgeStyle=elbowEdgeStyle;elbow=horizontal;verticalAlign=bottom;endArrow=open;endSize=8;strokeColor=#b85450;endFill=1;rounded=0;fillColor=#f8cecc;exitX=0.508;exitY=0.872;exitDx=0;exitDy=0;exitPerimeter=0;entryX=0.502;entryY=-0.004;entryDx=0;entryDy=0;entryPerimeter=0;" edge="1" parent="ueTn9yQbteEruOtS-YW8-271" source="ueTn9yQbteEruOtS-YW8-272" target="ueTn9yQbteEruOtS-YW8-274">
          <mxGeometry x="100" y="40" as="geometry">
            <mxPoint x="115" y="110" as="targetPoint" />
          </mxGeometry>
        </mxCell>
        <mxCell id="ueTn9yQbteEruOtS-YW8-274" value="Acessar Sub-Pagina&#xa;Urna" style="" vertex="1" parent="ueTn9yQbteEruOtS-YW8-271">
          <mxGeometry x="60" y="110" width="120" height="50" as="geometry" />
        </mxCell>
        <mxCell id="ueTn9yQbteEruOtS-YW8-275" value="Interface" style="swimlane;whiteSpace=wrap" vertex="1" parent="1">
          <mxGeometry x="1607.5" y="910" width="340" height="650" as="geometry" />
        </mxCell>
        <mxCell id="ueTn9yQbteEruOtS-YW8-277" value="" style="ellipse;shape=startState;fillColor=#000000;strokeColor=#b85450;" vertex="1" parent="ueTn9yQbteEruOtS-YW8-275">
          <mxGeometry x="60" y="32" width="30" height="30" as="geometry" />
        </mxCell>
        <mxCell id="ueTn9yQbteEruOtS-YW8-278" value="" style="edgeStyle=elbowEdgeStyle;elbow=horizontal;verticalAlign=bottom;endArrow=open;endSize=8;strokeColor=#b85450;endFill=1;rounded=0;fillColor=#f8cecc;entryX=0.507;entryY=-0.002;entryDx=0;entryDy=0;entryPerimeter=0;exitX=0.486;exitY=0.889;exitDx=0;exitDy=0;exitPerimeter=0;" edge="1" parent="ueTn9yQbteEruOtS-YW8-275" source="ueTn9yQbteEruOtS-YW8-277" target="ueTn9yQbteEruOtS-YW8-279">
          <mxGeometry x="40" y="20" as="geometry">
            <mxPoint x="55" y="90" as="targetPoint" />
          </mxGeometry>
        </mxCell>
        <mxCell id="ueTn9yQbteEruOtS-YW8-279" value="Verificar Usuário&#xa; Logado" style="" vertex="1" parent="ueTn9yQbteEruOtS-YW8-275">
          <mxGeometry x="20" y="110" width="110" height="50" as="geometry" />
        </mxCell>
        <mxCell id="ueTn9yQbteEruOtS-YW8-348" style="edgeStyle=orthogonalEdgeStyle;rounded=0;jumpSize=2;orthogonalLoop=1;jettySize=auto;html=1;strokeWidth=1;exitX=0.517;exitY=1.044;exitDx=0;exitDy=0;exitPerimeter=0;fillColor=#f8cecc;strokeColor=#b85450;dashed=1;entryX=0.502;entryY=0.029;entryDx=0;entryDy=0;entryPerimeter=0;" edge="1" parent="ueTn9yQbteEruOtS-YW8-275" source="ueTn9yQbteEruOtS-YW8-280" target="ueTn9yQbteEruOtS-YW8-350">
          <mxGeometry relative="1" as="geometry">
            <mxPoint x="127.5" y="290" as="targetPoint" />
          </mxGeometry>
        </mxCell>
        <mxCell id="ueTn9yQbteEruOtS-YW8-280" value="Dados da Eleição" style="strokeWidth=1;" vertex="1" parent="ueTn9yQbteEruOtS-YW8-275">
          <mxGeometry x="72.5" y="220" width="110" height="50" as="geometry" />
        </mxCell>
        <mxCell id="ueTn9yQbteEruOtS-YW8-286" style="edgeStyle=orthogonalEdgeStyle;rounded=0;jumpSize=2;orthogonalLoop=1;jettySize=auto;html=1;entryX=0.374;entryY=0.017;entryDx=0;entryDy=0;entryPerimeter=0;strokeWidth=1;fillColor=#f8cecc;strokeColor=#b85450;" edge="1" parent="ueTn9yQbteEruOtS-YW8-275" source="ueTn9yQbteEruOtS-YW8-287" target="ueTn9yQbteEruOtS-YW8-379">
          <mxGeometry relative="1" as="geometry">
            <mxPoint x="54.51999999999998" y="490.45000000000005" as="targetPoint" />
            <Array as="points">
              <mxPoint x="55" y="484" />
              <mxPoint x="55" y="484" />
              <mxPoint x="55" y="591" />
            </Array>
          </mxGeometry>
        </mxCell>
        <mxCell id="ueTn9yQbteEruOtS-YW8-287" value="" style="whiteSpace=wrap;strokeColor=#b85450;fillColor=#f8cecc;rotation=90;" vertex="1" parent="ueTn9yQbteEruOtS-YW8-275">
          <mxGeometry x="52.5" y="420" width="4.5" height="60" as="geometry" />
        </mxCell>
        <mxCell id="ueTn9yQbteEruOtS-YW8-289" value="Sim" style="text;html=1;strokeColor=none;fillColor=none;align=center;verticalAlign=middle;whiteSpace=wrap;rounded=0;" vertex="1" parent="ueTn9yQbteEruOtS-YW8-275">
          <mxGeometry x="154.75" y="324" width="30" height="20" as="geometry" />
        </mxCell>
        <mxCell id="ueTn9yQbteEruOtS-YW8-293" style="edgeStyle=orthogonalEdgeStyle;rounded=0;jumpSize=2;orthogonalLoop=1;jettySize=auto;html=1;entryX=0.501;entryY=0.005;entryDx=0;entryDy=0;entryPerimeter=0;strokeWidth=1;fillColor=#f8cecc;strokeColor=#b85450;exitX=1;exitY=0.5;exitDx=0;exitDy=0;" edge="1" parent="ueTn9yQbteEruOtS-YW8-275" source="ueTn9yQbteEruOtS-YW8-347" target="ueTn9yQbteEruOtS-YW8-296">
          <mxGeometry relative="1" as="geometry">
            <Array as="points">
              <mxPoint x="226" y="380" />
            </Array>
          </mxGeometry>
        </mxCell>
        <mxCell id="ueTn9yQbteEruOtS-YW8-296" value="Resultado Final" style="strokeWidth=1;" vertex="1" parent="ueTn9yQbteEruOtS-YW8-275">
          <mxGeometry x="171" y="410" width="110" height="50" as="geometry" />
        </mxCell>
        <mxCell id="ueTn9yQbteEruOtS-YW8-297" value="" style="ellipse;html=1;shape=endState;fillColor=#000000;strokeColor=#b85450;strokeWidth=1;" vertex="1" parent="ueTn9yQbteEruOtS-YW8-275">
          <mxGeometry x="295" y="177.5" width="30" height="30" as="geometry" />
        </mxCell>
        <mxCell id="ueTn9yQbteEruOtS-YW8-298" value="Pag/Login" style="text;html=1;strokeColor=none;fillColor=none;align=center;verticalAlign=middle;whiteSpace=wrap;rounded=0;" vertex="1" parent="ueTn9yQbteEruOtS-YW8-275">
          <mxGeometry x="281" y="199" width="60" height="30" as="geometry" />
        </mxCell>
        <mxCell id="ueTn9yQbteEruOtS-YW8-377" style="edgeStyle=orthogonalEdgeStyle;rounded=0;jumpSize=2;orthogonalLoop=1;jettySize=auto;html=1;entryX=-0.209;entryY=0.799;entryDx=0;entryDy=0;entryPerimeter=0;dashed=1;strokeWidth=1;fillColor=#f8cecc;strokeColor=#b85450;" edge="1" parent="ueTn9yQbteEruOtS-YW8-275" source="ueTn9yQbteEruOtS-YW8-347" target="ueTn9yQbteEruOtS-YW8-287">
          <mxGeometry relative="1" as="geometry" />
        </mxCell>
        <mxCell id="ueTn9yQbteEruOtS-YW8-347" value="" style="rhombus;fillColor=#FFFFC0;strokeColor=#b85450;" vertex="1" parent="ueTn9yQbteEruOtS-YW8-275">
          <mxGeometry x="107.5" y="360" width="40" height="40" as="geometry" />
        </mxCell>
        <mxCell id="ueTn9yQbteEruOtS-YW8-376" style="edgeStyle=orthogonalEdgeStyle;rounded=0;jumpSize=2;orthogonalLoop=1;jettySize=auto;html=1;entryX=0.5;entryY=0;entryDx=0;entryDy=0;dashed=1;strokeWidth=1;exitX=0.497;exitY=1.026;exitDx=0;exitDy=0;exitPerimeter=0;fillColor=#f8cecc;strokeColor=#b85450;" edge="1" parent="ueTn9yQbteEruOtS-YW8-275" source="ueTn9yQbteEruOtS-YW8-350" target="ueTn9yQbteEruOtS-YW8-347">
          <mxGeometry relative="1" as="geometry" />
        </mxCell>
        <mxCell id="ueTn9yQbteEruOtS-YW8-350" value="Estar no &#xa;prazo de votar&#xa;(Date)" style="strokeWidth=1;" vertex="1" parent="ueTn9yQbteEruOtS-YW8-275">
          <mxGeometry x="72.5" y="294" width="110" height="50" as="geometry" />
        </mxCell>
        <mxCell id="ueTn9yQbteEruOtS-YW8-379" value="Dados da eleição" style="strokeWidth=1;" vertex="1" parent="ueTn9yQbteEruOtS-YW8-275">
          <mxGeometry x="13.5" y="590" width="110" height="50" as="geometry" />
        </mxCell>
        <mxCell id="ueTn9yQbteEruOtS-YW8-299" value="Aplicativo" style="swimlane;whiteSpace=wrap" vertex="1" parent="1">
          <mxGeometry x="1947.5" y="910" width="300" height="650" as="geometry" />
        </mxCell>
        <mxCell id="ueTn9yQbteEruOtS-YW8-300" value="Sim" style="text;html=1;strokeColor=none;fillColor=none;align=center;verticalAlign=middle;whiteSpace=wrap;rounded=0;" vertex="1" parent="ueTn9yQbteEruOtS-YW8-299">
          <mxGeometry x="-4.5" y="204" width="60" height="30" as="geometry" />
        </mxCell>
        <mxCell id="ueTn9yQbteEruOtS-YW8-301" value="" style="whiteSpace=wrap;strokeColor=#b85450;fillColor=#f8cecc;" vertex="1" parent="ueTn9yQbteEruOtS-YW8-299">
          <mxGeometry x="189.5" y="255.5" width="4.5" height="60" as="geometry" />
        </mxCell>
        <mxCell id="ueTn9yQbteEruOtS-YW8-302" value="" style="whiteSpace=wrap;strokeColor=#b85450;fillColor=#f8cecc;" vertex="1" parent="ueTn9yQbteEruOtS-YW8-299">
          <mxGeometry x="194" y="347.5" width="4.5" height="60" as="geometry" />
        </mxCell>
        <mxCell id="ueTn9yQbteEruOtS-YW8-303" style="edgeStyle=orthogonalEdgeStyle;rounded=0;jumpSize=2;orthogonalLoop=1;jettySize=auto;html=1;entryX=-0.021;entryY=0.516;entryDx=0;entryDy=0;entryPerimeter=0;strokeWidth=1;fillColor=#f8cecc;strokeColor=#b85450;" edge="1" parent="ueTn9yQbteEruOtS-YW8-299" source="ueTn9yQbteEruOtS-YW8-305" target="ueTn9yQbteEruOtS-YW8-308">
          <mxGeometry relative="1" as="geometry">
            <Array as="points">
              <mxPoint x="49" y="30" />
              <mxPoint x="104" y="30" />
              <mxPoint x="104" y="66" />
            </Array>
          </mxGeometry>
        </mxCell>
        <mxCell id="ueTn9yQbteEruOtS-YW8-304" style="edgeStyle=orthogonalEdgeStyle;rounded=0;jumpSize=2;orthogonalLoop=1;jettySize=auto;html=1;entryX=0.505;entryY=-0.005;entryDx=0;entryDy=0;entryPerimeter=0;strokeWidth=1;fillColor=#f8cecc;strokeColor=#b85450;exitX=0.473;exitY=0.11;exitDx=0;exitDy=0;exitPerimeter=0;" edge="1" parent="ueTn9yQbteEruOtS-YW8-299" source="ueTn9yQbteEruOtS-YW8-305" target="ueTn9yQbteEruOtS-YW8-308">
          <mxGeometry relative="1" as="geometry">
            <mxPoint x="49" y="43" as="sourcePoint" />
            <mxPoint x="181.97000000000025" y="103.64999999999998" as="targetPoint" />
            <Array as="points">
              <mxPoint x="48" y="30" />
              <mxPoint x="180" y="30" />
            </Array>
          </mxGeometry>
        </mxCell>
        <mxCell id="ueTn9yQbteEruOtS-YW8-305" value="" style="ellipse;shape=startState;fillColor=#000000;strokeColor=#b85450;" vertex="1" parent="ueTn9yQbteEruOtS-YW8-299">
          <mxGeometry x="34" y="40" width="30" height="30" as="geometry" />
        </mxCell>
        <mxCell id="ueTn9yQbteEruOtS-YW8-306" style="edgeStyle=orthogonalEdgeStyle;rounded=0;jumpSize=2;orthogonalLoop=1;jettySize=auto;html=1;entryX=1.045;entryY=0.713;entryDx=0;entryDy=0;entryPerimeter=0;strokeWidth=1;exitX=1.002;exitY=0.516;exitDx=0;exitDy=0;exitPerimeter=0;fillColor=#f8cecc;strokeColor=#b85450;" edge="1" parent="ueTn9yQbteEruOtS-YW8-299" source="ueTn9yQbteEruOtS-YW8-308" target="ueTn9yQbteEruOtS-YW8-302">
          <mxGeometry relative="1" as="geometry">
            <Array as="points">
              <mxPoint x="274" y="66" />
              <mxPoint x="274" y="390" />
              <mxPoint x="199" y="390" />
            </Array>
          </mxGeometry>
        </mxCell>
        <mxCell id="ueTn9yQbteEruOtS-YW8-307" style="edgeStyle=orthogonalEdgeStyle;rounded=0;jumpSize=2;orthogonalLoop=1;jettySize=auto;html=1;entryX=1.416;entryY=0.68;entryDx=0;entryDy=0;entryPerimeter=0;strokeWidth=1;exitX=0.498;exitY=1.014;exitDx=0;exitDy=0;exitPerimeter=0;fillColor=#f8cecc;strokeColor=#b85450;" edge="1" parent="ueTn9yQbteEruOtS-YW8-299" source="ueTn9yQbteEruOtS-YW8-308" target="ueTn9yQbteEruOtS-YW8-301">
          <mxGeometry relative="1" as="geometry">
            <mxPoint x="179" y="60" as="sourcePoint" />
            <mxPoint x="198.48649999999998" y="295.96000000000004" as="targetPoint" />
            <Array as="points">
              <mxPoint x="179" y="95" />
              <mxPoint x="114" y="95" />
              <mxPoint x="114" y="166" />
              <mxPoint x="254" y="166" />
              <mxPoint x="254" y="296" />
            </Array>
          </mxGeometry>
        </mxCell>
        <mxCell id="ueTn9yQbteEruOtS-YW8-308" value="Banco de Dados" style="" vertex="1" parent="ueTn9yQbteEruOtS-YW8-299">
          <mxGeometry x="124" y="40" width="110" height="50" as="geometry" />
        </mxCell>
        <mxCell id="ueTn9yQbteEruOtS-YW8-309" style="edgeStyle=orthogonalEdgeStyle;rounded=0;jumpSize=2;orthogonalLoop=1;jettySize=auto;html=1;entryX=1.032;entryY=0.222;entryDx=0;entryDy=0;entryPerimeter=0;strokeWidth=1;fillColor=#f8cecc;strokeColor=#b85450;" edge="1" parent="ueTn9yQbteEruOtS-YW8-299" source="ueTn9yQbteEruOtS-YW8-310" target="ueTn9yQbteEruOtS-YW8-302">
          <mxGeometry relative="1" as="geometry">
            <Array as="points">
              <mxPoint x="264" y="125" />
              <mxPoint x="264" y="361" />
            </Array>
          </mxGeometry>
        </mxCell>
        <mxCell id="ueTn9yQbteEruOtS-YW8-310" value="Servidor" style="" vertex="1" parent="ueTn9yQbteEruOtS-YW8-299">
          <mxGeometry x="124" y="100" width="110" height="50" as="geometry" />
        </mxCell>
        <mxCell id="ueTn9yQbteEruOtS-YW8-349" style="edgeStyle=orthogonalEdgeStyle;rounded=0;jumpSize=2;orthogonalLoop=1;jettySize=auto;html=1;entryX=1;entryY=0.5;entryDx=0;entryDy=0;strokeWidth=1;exitX=0.553;exitY=1.005;exitDx=0;exitDy=0;exitPerimeter=0;fillColor=#f8cecc;strokeColor=#b85450;dashed=1;" edge="1" parent="ueTn9yQbteEruOtS-YW8-299" source="ueTn9yQbteEruOtS-YW8-324" target="ueTn9yQbteEruOtS-YW8-283">
          <mxGeometry relative="1" as="geometry">
            <Array as="points">
              <mxPoint x="223" y="510" />
              <mxPoint x="254" y="510" />
              <mxPoint x="254" y="550" />
            </Array>
          </mxGeometry>
        </mxCell>
        <mxCell id="ueTn9yQbteEruOtS-YW8-324" value="Usuário já&#xa; participou" style="strokeWidth=1;" vertex="1" parent="ueTn9yQbteEruOtS-YW8-299">
          <mxGeometry x="162.5" y="440" width="110" height="50" as="geometry" />
        </mxCell>
        <mxCell id="ueTn9yQbteEruOtS-YW8-323" style="edgeStyle=orthogonalEdgeStyle;rounded=0;jumpSize=2;orthogonalLoop=1;jettySize=auto;html=1;strokeWidth=1;exitX=1.01;exitY=0.126;exitDx=0;exitDy=0;exitPerimeter=0;fillColor=#f8cecc;strokeColor=#b85450;entryX=1.015;entryY=0.526;entryDx=0;entryDy=0;entryPerimeter=0;" edge="1" parent="ueTn9yQbteEruOtS-YW8-299" source="ueTn9yQbteEruOtS-YW8-308" target="ueTn9yQbteEruOtS-YW8-324">
          <mxGeometry relative="1" as="geometry">
            <mxPoint x="192.5" y="550" as="targetPoint" />
            <Array as="points">
              <mxPoint x="238" y="46" />
              <mxPoint x="238" y="40" />
              <mxPoint x="293" y="40" />
              <mxPoint x="293" y="466" />
            </Array>
          </mxGeometry>
        </mxCell>
        <mxCell id="ueTn9yQbteEruOtS-YW8-283" value="" style="rhombus;fillColor=#FFFFC0;strokeColor=#b85450;" vertex="1" parent="ueTn9yQbteEruOtS-YW8-299">
          <mxGeometry x="194" y="530" width="40" height="40" as="geometry" />
        </mxCell>
        <mxCell id="ueTn9yQbteEruOtS-YW8-290" value="Não" style="text;html=1;strokeColor=none;fillColor=none;align=center;verticalAlign=middle;whiteSpace=wrap;rounded=0;" vertex="1" parent="ueTn9yQbteEruOtS-YW8-299">
          <mxGeometry x="176.75" y="590" width="30" height="20" as="geometry" />
        </mxCell>
        <mxCell id="ueTn9yQbteEruOtS-YW8-378" value="Sim" style="text;html=1;strokeColor=none;fillColor=none;align=center;verticalAlign=middle;whiteSpace=wrap;rounded=0;" vertex="1" parent="ueTn9yQbteEruOtS-YW8-299">
          <mxGeometry x="181.25" y="510" width="30" height="20" as="geometry" />
        </mxCell>
        <mxCell id="ueTn9yQbteEruOtS-YW8-311" style="edgeStyle=orthogonalEdgeStyle;rounded=0;orthogonalLoop=1;jettySize=auto;html=1;entryX=-0.012;entryY=0.498;entryDx=0;entryDy=0;entryPerimeter=0;fillColor=#f8cecc;strokeColor=#b85450;exitX=1.002;exitY=0.504;exitDx=0;exitDy=0;exitPerimeter=0;" edge="1" parent="1" source="ueTn9yQbteEruOtS-YW8-274" target="ueTn9yQbteEruOtS-YW8-279">
          <mxGeometry relative="1" as="geometry" />
        </mxCell>
        <mxCell id="ueTn9yQbteEruOtS-YW8-312" style="edgeStyle=orthogonalEdgeStyle;rounded=0;jumpSize=2;orthogonalLoop=1;jettySize=auto;html=1;exitX=0;exitY=0.5;exitDx=0;exitDy=0;entryX=0.451;entryY=-0.068;entryDx=0;entryDy=0;entryPerimeter=0;strokeWidth=1;fillColor=#f8cecc;strokeColor=#b85450;" edge="1" parent="1" source="ueTn9yQbteEruOtS-YW8-314" target="ueTn9yQbteEruOtS-YW8-320">
          <mxGeometry relative="1" as="geometry">
            <Array as="points">
              <mxPoint x="1879" y="1145" />
              <mxPoint x="1879" y="1100" />
              <mxPoint x="1437" y="1100" />
            </Array>
          </mxGeometry>
        </mxCell>
        <mxCell id="ueTn9yQbteEruOtS-YW8-313" style="edgeStyle=orthogonalEdgeStyle;rounded=0;jumpSize=2;orthogonalLoop=1;jettySize=auto;html=1;entryX=1;entryY=0.5;entryDx=0;entryDy=0;strokeWidth=1;fillColor=#f8cecc;strokeColor=#b85450;" edge="1" parent="1" source="ueTn9yQbteEruOtS-YW8-314" target="ueTn9yQbteEruOtS-YW8-297">
          <mxGeometry relative="1" as="geometry">
            <Array as="points">
              <mxPoint x="2068.5" y="1146" />
              <mxPoint x="2068.5" y="1103" />
            </Array>
          </mxGeometry>
        </mxCell>
        <mxCell id="ueTn9yQbteEruOtS-YW8-314" value="" style="rhombus;fillColor=#FFFFC0;strokeColor=#b85450;" vertex="1" parent="1">
          <mxGeometry x="1986" y="1125.5" width="40" height="40" as="geometry" />
        </mxCell>
        <mxCell id="ueTn9yQbteEruOtS-YW8-315" style="edgeStyle=orthogonalEdgeStyle;rounded=0;jumpSize=2;orthogonalLoop=1;jettySize=auto;html=1;strokeWidth=1;fillColor=#f8cecc;strokeColor=#b85450;exitX=1;exitY=0.005;exitDx=0;exitDy=0;exitPerimeter=0;entryX=1.165;entryY=0.24;entryDx=0;entryDy=0;entryPerimeter=0;" edge="1" parent="1" source="ueTn9yQbteEruOtS-YW8-279" target="ueTn9yQbteEruOtS-YW8-301">
          <mxGeometry relative="1" as="geometry">
            <Array as="points">
              <mxPoint x="1737" y="1033" />
              <mxPoint x="1907" y="1033" />
              <mxPoint x="1907" y="1080" />
              <mxPoint x="2177" y="1080" />
              <mxPoint x="2177" y="1180" />
              <mxPoint x="2146" y="1180" />
            </Array>
            <mxPoint x="1737.5" y="1040" as="sourcePoint" />
            <mxPoint x="2146" y="1180" as="targetPoint" />
          </mxGeometry>
        </mxCell>
        <mxCell id="ueTn9yQbteEruOtS-YW8-316" value="Não" style="text;html=1;strokeColor=none;fillColor=none;align=center;verticalAlign=middle;whiteSpace=wrap;rounded=0;" vertex="1" parent="1">
          <mxGeometry x="2016.5" y="1121" width="60" height="30" as="geometry" />
        </mxCell>
        <mxCell id="ueTn9yQbteEruOtS-YW8-317" style="edgeStyle=orthogonalEdgeStyle;rounded=0;jumpSize=2;orthogonalLoop=1;jettySize=auto;html=1;entryX=0.5;entryY=1;entryDx=0;entryDy=0;strokeWidth=1;fillColor=#f8cecc;strokeColor=#b85450;exitX=-0.035;exitY=0.64;exitDx=0;exitDy=0;exitPerimeter=0;" edge="1" parent="1" target="ueTn9yQbteEruOtS-YW8-314" source="ueTn9yQbteEruOtS-YW8-301">
          <mxGeometry relative="1" as="geometry">
            <Array as="points">
              <mxPoint x="2007" y="1200" />
              <mxPoint x="2007" y="1190" />
              <mxPoint x="2006" y="1190" />
            </Array>
            <mxPoint x="2137.5" y="1200" as="sourcePoint" />
          </mxGeometry>
        </mxCell>
        <mxCell id="ueTn9yQbteEruOtS-YW8-318" style="edgeStyle=orthogonalEdgeStyle;rounded=0;jumpSize=2;orthogonalLoop=1;jettySize=auto;html=1;entryX=0.994;entryY=0.346;entryDx=0;entryDy=0;entryPerimeter=0;strokeWidth=1;fillColor=#f8cecc;strokeColor=#b85450;dashed=1;exitX=0.267;exitY=0.68;exitDx=0;exitDy=0;exitPerimeter=0;" edge="1" parent="1" source="ueTn9yQbteEruOtS-YW8-302" target="ueTn9yQbteEruOtS-YW8-280">
          <mxGeometry relative="1" as="geometry">
            <mxPoint x="2127.5" y="1290" as="sourcePoint" />
            <mxPoint x="2001.44" y="1299.85" as="targetPoint" />
            <Array as="points">
              <mxPoint x="2117" y="1298" />
              <mxPoint x="2117" y="1270" />
              <mxPoint x="1857" y="1270" />
              <mxPoint x="1857" y="1147" />
            </Array>
          </mxGeometry>
        </mxCell>
        <mxCell id="ueTn9yQbteEruOtS-YW8-319" style="edgeStyle=orthogonalEdgeStyle;rounded=0;jumpSize=2;orthogonalLoop=1;jettySize=auto;html=1;entryX=0.007;entryY=0.489;entryDx=0;entryDy=0;entryPerimeter=0;strokeWidth=1;fillColor=#f8cecc;strokeColor=#b85450;" edge="1" parent="1" source="ueTn9yQbteEruOtS-YW8-320" target="ueTn9yQbteEruOtS-YW8-280">
          <mxGeometry relative="1" as="geometry" />
        </mxCell>
        <mxCell id="ueTn9yQbteEruOtS-YW8-320" value="Interagir" style="strokeWidth=1;" vertex="1" parent="1">
          <mxGeometry x="1387.5" y="1130" width="110" height="50" as="geometry" />
        </mxCell>
        <mxCell id="ueTn9yQbteEruOtS-YW8-285" style="edgeStyle=orthogonalEdgeStyle;rounded=0;jumpSize=2;orthogonalLoop=1;jettySize=auto;html=1;exitX=0.5;exitY=1;exitDx=0;exitDy=0;entryX=1.009;entryY=0.489;entryDx=0;entryDy=0;strokeWidth=1;fillColor=#f8cecc;strokeColor=#b85450;entryPerimeter=0;" edge="1" parent="1" source="ueTn9yQbteEruOtS-YW8-283" target="ueTn9yQbteEruOtS-YW8-379">
          <mxGeometry relative="1" as="geometry">
            <mxPoint x="2158" y="1480" as="sourcePoint" />
            <mxPoint x="1902.0900000000001" y="1471.31" as="targetPoint" />
            <Array as="points">
              <mxPoint x="2162" y="1524" />
              <mxPoint x="1731" y="1524" />
            </Array>
          </mxGeometry>
        </mxCell>
        <mxCell id="ueTn9yQbteEruOtS-YW8-288" style="edgeStyle=orthogonalEdgeStyle;rounded=0;jumpSize=2;orthogonalLoop=1;jettySize=auto;html=1;strokeWidth=1;entryX=0.027;entryY=0.308;entryDx=0;entryDy=0;entryPerimeter=0;exitX=0.5;exitY=0;exitDx=0;exitDy=0;fillColor=#f8cecc;strokeColor=#b85450;" edge="1" parent="1" source="ueTn9yQbteEruOtS-YW8-283" target="ueTn9yQbteEruOtS-YW8-287">
          <mxGeometry relative="1" as="geometry">
            <mxPoint x="1721.5" y="1232.6" as="sourcePoint" />
            <mxPoint x="1678.8500000000001" y="1279.972" as="targetPoint" />
            <Array as="points">
              <mxPoint x="2050" y="1440" />
              <mxPoint x="2050" y="1410" />
              <mxPoint x="1760" y="1410" />
              <mxPoint x="1760" y="1328" />
              <mxPoint x="1674" y="1328" />
            </Array>
          </mxGeometry>
        </mxCell>
        <mxCell id="ueTn9yQbteEruOtS-YW8-458" value="Interface" style="swimlane;whiteSpace=wrap" vertex="1" parent="1">
          <mxGeometry x="2738" y="939" width="330" height="630" as="geometry" />
        </mxCell>
        <mxCell id="ueTn9yQbteEruOtS-YW8-459" value="Registrar Voto" style="shape=umlFrame;whiteSpace=wrap;html=1;" vertex="1" parent="ueTn9yQbteEruOtS-YW8-458">
          <mxGeometry x="-330" y="-40" width="1030" height="680" as="geometry" />
        </mxCell>
        <mxCell id="ueTn9yQbteEruOtS-YW8-460" value="" style="ellipse;shape=startState;fillColor=#000000;strokeColor=#b85450;" vertex="1" parent="ueTn9yQbteEruOtS-YW8-458">
          <mxGeometry x="60" y="32" width="30" height="30" as="geometry" />
        </mxCell>
        <mxCell id="ueTn9yQbteEruOtS-YW8-461" value="" style="edgeStyle=elbowEdgeStyle;elbow=horizontal;verticalAlign=bottom;endArrow=open;endSize=8;strokeColor=#b85450;endFill=1;rounded=0;fillColor=#f8cecc;entryX=0.507;entryY=-0.002;entryDx=0;entryDy=0;entryPerimeter=0;exitX=0.486;exitY=0.889;exitDx=0;exitDy=0;exitPerimeter=0;" edge="1" parent="ueTn9yQbteEruOtS-YW8-458" source="ueTn9yQbteEruOtS-YW8-460" target="ueTn9yQbteEruOtS-YW8-462">
          <mxGeometry x="40" y="20" as="geometry">
            <mxPoint x="55" y="90" as="targetPoint" />
          </mxGeometry>
        </mxCell>
        <mxCell id="ueTn9yQbteEruOtS-YW8-462" value="Verificar Usuário&#xa; Logado" style="" vertex="1" parent="ueTn9yQbteEruOtS-YW8-458">
          <mxGeometry x="20" y="110" width="110" height="50" as="geometry" />
        </mxCell>
        <mxCell id="ueTn9yQbteEruOtS-YW8-463" value="Sistema de &#xa;voto Eletrônico &#xa;Virtual" style="strokeWidth=1;" vertex="1" parent="ueTn9yQbteEruOtS-YW8-458">
          <mxGeometry x="74.75" y="220" width="110" height="50" as="geometry" />
        </mxCell>
        <mxCell id="ueTn9yQbteEruOtS-YW8-464" style="edgeStyle=orthogonalEdgeStyle;rounded=0;jumpSize=2;orthogonalLoop=1;jettySize=auto;html=1;entryX=-0.453;entryY=0.703;entryDx=0;entryDy=0;strokeWidth=1;exitX=0.494;exitY=1.017;exitDx=0;exitDy=0;exitPerimeter=0;fillColor=#f8cecc;strokeColor=#b85450;entryPerimeter=0;" edge="1" parent="ueTn9yQbteEruOtS-YW8-458" source="ueTn9yQbteEruOtS-YW8-463" target="ueTn9yQbteEruOtS-YW8-512">
          <mxGeometry relative="1" as="geometry">
            <mxPoint x="75.5" y="280" as="sourcePoint" />
            <mxPoint x="129.75" y="320" as="targetPoint" />
          </mxGeometry>
        </mxCell>
        <mxCell id="ueTn9yQbteEruOtS-YW8-466" value="Pag/Urna (da Eleição)" style="text;html=1;strokeColor=none;fillColor=none;align=center;verticalAlign=middle;whiteSpace=wrap;rounded=0;" vertex="1" parent="ueTn9yQbteEruOtS-YW8-458">
          <mxGeometry x="27.619999999999997" y="591" width="70.25" height="30" as="geometry" />
        </mxCell>
        <mxCell id="ueTn9yQbteEruOtS-YW8-467" value="" style="ellipse;html=1;shape=endState;fillColor=#000000;strokeColor=#b85450;strokeWidth=1;" vertex="1" parent="ueTn9yQbteEruOtS-YW8-458">
          <mxGeometry x="280" y="180" width="30" height="30" as="geometry" />
        </mxCell>
        <mxCell id="ueTn9yQbteEruOtS-YW8-468" value="Pag/Login" style="text;html=1;strokeColor=none;fillColor=none;align=center;verticalAlign=middle;whiteSpace=wrap;rounded=0;" vertex="1" parent="ueTn9yQbteEruOtS-YW8-458">
          <mxGeometry x="266" y="202" width="60" height="30" as="geometry" />
        </mxCell>
        <mxCell id="ueTn9yQbteEruOtS-YW8-524" style="edgeStyle=orthogonalEdgeStyle;rounded=0;jumpSize=2;orthogonalLoop=1;jettySize=auto;html=1;exitX=0;exitY=0.5;exitDx=0;exitDy=0;entryX=0.469;entryY=-0.061;entryDx=0;entryDy=0;entryPerimeter=0;strokeWidth=1;fillColor=#f8cecc;strokeColor=#b85450;" edge="1" parent="ueTn9yQbteEruOtS-YW8-458" source="ueTn9yQbteEruOtS-YW8-510" target="ueTn9yQbteEruOtS-YW8-518">
          <mxGeometry relative="1" as="geometry" />
        </mxCell>
        <mxCell id="ueTn9yQbteEruOtS-YW8-531" style="edgeStyle=orthogonalEdgeStyle;rounded=0;jumpSize=2;orthogonalLoop=1;jettySize=auto;html=1;strokeWidth=1;fillColor=#f8cecc;strokeColor=#b85450;" edge="1" parent="ueTn9yQbteEruOtS-YW8-458" source="ueTn9yQbteEruOtS-YW8-510" target="ueTn9yQbteEruOtS-YW8-530">
          <mxGeometry relative="1" as="geometry" />
        </mxCell>
        <mxCell id="ueTn9yQbteEruOtS-YW8-510" value="" style="rhombus;fillColor=#FFFFC0;strokeColor=#b85450;" vertex="1" parent="ueTn9yQbteEruOtS-YW8-458">
          <mxGeometry x="112.25000000000023" y="420" width="40" height="40" as="geometry" />
        </mxCell>
        <mxCell id="ueTn9yQbteEruOtS-YW8-514" style="edgeStyle=orthogonalEdgeStyle;rounded=0;jumpSize=2;orthogonalLoop=1;jettySize=auto;html=1;entryX=0.5;entryY=0;entryDx=0;entryDy=0;strokeWidth=1;strokeColor=none;" edge="1" parent="ueTn9yQbteEruOtS-YW8-458" source="ueTn9yQbteEruOtS-YW8-512" target="ueTn9yQbteEruOtS-YW8-510">
          <mxGeometry relative="1" as="geometry" />
        </mxCell>
        <mxCell id="ueTn9yQbteEruOtS-YW8-516" style="edgeStyle=orthogonalEdgeStyle;rounded=0;jumpSize=2;orthogonalLoop=1;jettySize=auto;html=1;entryX=0.5;entryY=0;entryDx=0;entryDy=0;strokeWidth=1;" edge="1" parent="ueTn9yQbteEruOtS-YW8-458" source="ueTn9yQbteEruOtS-YW8-512" target="ueTn9yQbteEruOtS-YW8-510">
          <mxGeometry relative="1" as="geometry" />
        </mxCell>
        <mxCell id="ueTn9yQbteEruOtS-YW8-512" value="" style="whiteSpace=wrap;strokeColor=#b85450;fillColor=#f8cecc;rotation=90;" vertex="1" parent="ueTn9yQbteEruOtS-YW8-458">
          <mxGeometry x="130" y="349" width="4.5" height="60" as="geometry" />
        </mxCell>
        <mxCell id="ueTn9yQbteEruOtS-YW8-515" value="" style="ellipse;html=1;shape=endState;fillColor=#000000;strokeColor=#b85450;strokeWidth=1;" vertex="1" parent="ueTn9yQbteEruOtS-YW8-458">
          <mxGeometry x="44.75" y="560" width="30" height="30" as="geometry" />
        </mxCell>
        <mxCell id="ueTn9yQbteEruOtS-YW8-523" style="edgeStyle=orthogonalEdgeStyle;rounded=0;jumpSize=2;orthogonalLoop=1;jettySize=auto;html=1;entryX=0.194;entryY=1.007;entryDx=0;entryDy=0;entryPerimeter=0;strokeWidth=1;exitX=0.014;exitY=0.605;exitDx=0;exitDy=0;exitPerimeter=0;fillColor=#f8cecc;strokeColor=#b85450;" edge="1" parent="ueTn9yQbteEruOtS-YW8-458" source="ueTn9yQbteEruOtS-YW8-518" target="ueTn9yQbteEruOtS-YW8-463">
          <mxGeometry relative="1" as="geometry">
            <Array as="points">
              <mxPoint x="16" y="500" />
              <mxPoint x="16" y="370" />
              <mxPoint x="96" y="370" />
              <mxPoint x="96" y="280" />
            </Array>
          </mxGeometry>
        </mxCell>
        <mxCell id="ueTn9yQbteEruOtS-YW8-518" value="MSG:&#xa;Erro &#xa;de preenchimento" style="strokeWidth=1;" vertex="1" parent="ueTn9yQbteEruOtS-YW8-458">
          <mxGeometry x="20" y="470" width="110" height="50" as="geometry" />
        </mxCell>
        <mxCell id="ueTn9yQbteEruOtS-YW8-529" style="edgeStyle=orthogonalEdgeStyle;rounded=0;jumpSize=2;orthogonalLoop=1;jettySize=auto;html=1;entryX=1;entryY=0.5;entryDx=0;entryDy=0;strokeWidth=1;fillColor=#f8cecc;strokeColor=#b85450;" edge="1" parent="ueTn9yQbteEruOtS-YW8-458" source="ueTn9yQbteEruOtS-YW8-519" target="ueTn9yQbteEruOtS-YW8-515">
          <mxGeometry relative="1" as="geometry">
            <Array as="points">
              <mxPoint x="207" y="575" />
            </Array>
          </mxGeometry>
        </mxCell>
        <mxCell id="ueTn9yQbteEruOtS-YW8-519" value="MSG:&#xa;Voto Efetuado &#xa;com sucesso" style="strokeWidth=1;" vertex="1" parent="ueTn9yQbteEruOtS-YW8-458">
          <mxGeometry x="152.25" y="490" width="110" height="50" as="geometry" />
        </mxCell>
        <mxCell id="ueTn9yQbteEruOtS-YW8-525" value="Falso" style="text;html=1;strokeColor=none;fillColor=none;align=center;verticalAlign=middle;whiteSpace=wrap;rounded=0;" vertex="1" parent="ueTn9yQbteEruOtS-YW8-458">
          <mxGeometry x="74.75" y="420" width="30" height="20" as="geometry" />
        </mxCell>
        <mxCell id="ueTn9yQbteEruOtS-YW8-526" value="Verdadeiro" style="text;html=1;strokeColor=none;fillColor=none;align=center;verticalAlign=middle;whiteSpace=wrap;rounded=0;" vertex="1" parent="ueTn9yQbteEruOtS-YW8-458">
          <mxGeometry x="152.25" y="409" width="30" height="20" as="geometry" />
        </mxCell>
        <mxCell id="ueTn9yQbteEruOtS-YW8-533" style="edgeStyle=orthogonalEdgeStyle;rounded=0;jumpSize=2;orthogonalLoop=1;jettySize=auto;html=1;entryX=0.592;entryY=0.018;entryDx=0;entryDy=0;entryPerimeter=0;strokeWidth=1;exitX=-0.053;exitY=0.187;exitDx=0;exitDy=0;exitPerimeter=0;fillColor=#f8cecc;strokeColor=#b85450;" edge="1" parent="ueTn9yQbteEruOtS-YW8-458" source="ueTn9yQbteEruOtS-YW8-530" target="ueTn9yQbteEruOtS-YW8-519">
          <mxGeometry relative="1" as="geometry" />
        </mxCell>
        <mxCell id="ueTn9yQbteEruOtS-YW8-530" value="" style="whiteSpace=wrap;strokeColor=#b85450;fillColor=#f8cecc;rotation=-180;" vertex="1" parent="ueTn9yQbteEruOtS-YW8-458">
          <mxGeometry x="205" y="440" width="4.5" height="30" as="geometry" />
        </mxCell>
        <mxCell id="ueTn9yQbteEruOtS-YW8-469" value="Usuário" style="swimlane;whiteSpace=wrap" vertex="1" parent="1">
          <mxGeometry x="2448" y="939" width="290" height="630" as="geometry" />
        </mxCell>
        <mxCell id="ueTn9yQbteEruOtS-YW8-470" value="" style="ellipse;shape=startState;fillColor=#000000;strokeColor=#b85450;" vertex="1" parent="ueTn9yQbteEruOtS-YW8-469">
          <mxGeometry x="100" y="40" width="30" height="30" as="geometry" />
        </mxCell>
        <mxCell id="ueTn9yQbteEruOtS-YW8-471" value="" style="edgeStyle=elbowEdgeStyle;elbow=horizontal;verticalAlign=bottom;endArrow=open;endSize=8;strokeColor=#b85450;endFill=1;rounded=0;fillColor=#f8cecc;exitX=0.508;exitY=0.872;exitDx=0;exitDy=0;exitPerimeter=0;entryX=0.502;entryY=-0.004;entryDx=0;entryDy=0;entryPerimeter=0;" edge="1" parent="ueTn9yQbteEruOtS-YW8-469" source="ueTn9yQbteEruOtS-YW8-470" target="ueTn9yQbteEruOtS-YW8-472">
          <mxGeometry x="100" y="40" as="geometry">
            <mxPoint x="115" y="110" as="targetPoint" />
          </mxGeometry>
        </mxCell>
        <mxCell id="ueTn9yQbteEruOtS-YW8-472" value="Pagina &#xa;Votar" style="" vertex="1" parent="ueTn9yQbteEruOtS-YW8-469">
          <mxGeometry x="60" y="110" width="110" height="50" as="geometry" />
        </mxCell>
        <mxCell id="ueTn9yQbteEruOtS-YW8-473" value="Aplicativo" style="swimlane;whiteSpace=wrap" vertex="1" parent="1">
          <mxGeometry x="3068" y="939" width="316" height="630" as="geometry" />
        </mxCell>
        <mxCell id="ueTn9yQbteEruOtS-YW8-474" value="Sim" style="text;html=1;strokeColor=none;fillColor=none;align=center;verticalAlign=middle;whiteSpace=wrap;rounded=0;" vertex="1" parent="ueTn9yQbteEruOtS-YW8-473">
          <mxGeometry x="-4.5" y="204" width="60" height="30" as="geometry" />
        </mxCell>
        <mxCell id="ueTn9yQbteEruOtS-YW8-475" value="" style="whiteSpace=wrap;strokeColor=#b85450;fillColor=#f8cecc;" vertex="1" parent="ueTn9yQbteEruOtS-YW8-473">
          <mxGeometry x="194" y="253" width="4.5" height="60" as="geometry" />
        </mxCell>
        <mxCell id="ueTn9yQbteEruOtS-YW8-476" value="" style="whiteSpace=wrap;strokeColor=#b85450;fillColor=#f8cecc;" vertex="1" parent="ueTn9yQbteEruOtS-YW8-473">
          <mxGeometry x="194" y="347.5" width="4.5" height="60" as="geometry" />
        </mxCell>
        <mxCell id="ueTn9yQbteEruOtS-YW8-477" style="edgeStyle=orthogonalEdgeStyle;rounded=0;jumpSize=2;orthogonalLoop=1;jettySize=auto;html=1;entryX=-0.021;entryY=0.516;entryDx=0;entryDy=0;entryPerimeter=0;strokeWidth=1;fillColor=#f8cecc;strokeColor=#b85450;" edge="1" parent="ueTn9yQbteEruOtS-YW8-473" source="ueTn9yQbteEruOtS-YW8-479" target="ueTn9yQbteEruOtS-YW8-482">
          <mxGeometry relative="1" as="geometry">
            <Array as="points">
              <mxPoint x="49" y="30" />
              <mxPoint x="104" y="30" />
              <mxPoint x="104" y="66" />
            </Array>
          </mxGeometry>
        </mxCell>
        <mxCell id="ueTn9yQbteEruOtS-YW8-478" style="edgeStyle=orthogonalEdgeStyle;rounded=0;jumpSize=2;orthogonalLoop=1;jettySize=auto;html=1;entryX=0.505;entryY=-0.005;entryDx=0;entryDy=0;entryPerimeter=0;strokeWidth=1;fillColor=#f8cecc;strokeColor=#b85450;exitX=0.473;exitY=0.11;exitDx=0;exitDy=0;exitPerimeter=0;" edge="1" parent="ueTn9yQbteEruOtS-YW8-473" source="ueTn9yQbteEruOtS-YW8-479" target="ueTn9yQbteEruOtS-YW8-482">
          <mxGeometry relative="1" as="geometry">
            <mxPoint x="49" y="43" as="sourcePoint" />
            <mxPoint x="181.97000000000025" y="103.64999999999998" as="targetPoint" />
            <Array as="points">
              <mxPoint x="48" y="30" />
              <mxPoint x="180" y="30" />
            </Array>
          </mxGeometry>
        </mxCell>
        <mxCell id="ueTn9yQbteEruOtS-YW8-479" value="" style="ellipse;shape=startState;fillColor=#000000;strokeColor=#b85450;" vertex="1" parent="ueTn9yQbteEruOtS-YW8-473">
          <mxGeometry x="34" y="40" width="30" height="30" as="geometry" />
        </mxCell>
        <mxCell id="ueTn9yQbteEruOtS-YW8-480" style="edgeStyle=orthogonalEdgeStyle;rounded=0;jumpSize=2;orthogonalLoop=1;jettySize=auto;html=1;entryX=1.045;entryY=0.713;entryDx=0;entryDy=0;entryPerimeter=0;strokeWidth=1;exitX=1.002;exitY=0.516;exitDx=0;exitDy=0;exitPerimeter=0;fillColor=#f8cecc;strokeColor=#b85450;" edge="1" parent="ueTn9yQbteEruOtS-YW8-473" source="ueTn9yQbteEruOtS-YW8-482" target="ueTn9yQbteEruOtS-YW8-476">
          <mxGeometry relative="1" as="geometry">
            <Array as="points">
              <mxPoint x="274" y="66" />
              <mxPoint x="274" y="390" />
              <mxPoint x="199" y="390" />
            </Array>
          </mxGeometry>
        </mxCell>
        <mxCell id="ueTn9yQbteEruOtS-YW8-481" style="edgeStyle=orthogonalEdgeStyle;rounded=0;jumpSize=2;orthogonalLoop=1;jettySize=auto;html=1;entryX=0.922;entryY=0.711;entryDx=0;entryDy=0;entryPerimeter=0;strokeWidth=1;exitX=0.498;exitY=1.014;exitDx=0;exitDy=0;exitPerimeter=0;fillColor=#f8cecc;strokeColor=#b85450;" edge="1" parent="ueTn9yQbteEruOtS-YW8-473" source="ueTn9yQbteEruOtS-YW8-482" target="ueTn9yQbteEruOtS-YW8-475">
          <mxGeometry relative="1" as="geometry">
            <mxPoint x="179" y="60" as="sourcePoint" />
            <mxPoint x="198.48649999999998" y="295.96000000000004" as="targetPoint" />
            <Array as="points">
              <mxPoint x="179" y="95" />
              <mxPoint x="114" y="95" />
              <mxPoint x="114" y="166" />
              <mxPoint x="254" y="166" />
              <mxPoint x="254" y="296" />
            </Array>
          </mxGeometry>
        </mxCell>
        <mxCell id="ueTn9yQbteEruOtS-YW8-482" value="Banco de Dados" style="" vertex="1" parent="ueTn9yQbteEruOtS-YW8-473">
          <mxGeometry x="124" y="40" width="110" height="50" as="geometry" />
        </mxCell>
        <mxCell id="ueTn9yQbteEruOtS-YW8-483" style="edgeStyle=orthogonalEdgeStyle;rounded=0;jumpSize=2;orthogonalLoop=1;jettySize=auto;html=1;entryX=1.032;entryY=0.222;entryDx=0;entryDy=0;entryPerimeter=0;strokeWidth=1;fillColor=#f8cecc;strokeColor=#b85450;" edge="1" parent="ueTn9yQbteEruOtS-YW8-473" source="ueTn9yQbteEruOtS-YW8-484" target="ueTn9yQbteEruOtS-YW8-476">
          <mxGeometry relative="1" as="geometry">
            <Array as="points">
              <mxPoint x="264" y="125" />
              <mxPoint x="264" y="361" />
            </Array>
          </mxGeometry>
        </mxCell>
        <mxCell id="ueTn9yQbteEruOtS-YW8-484" value="Servidor" style="" vertex="1" parent="ueTn9yQbteEruOtS-YW8-473">
          <mxGeometry x="124" y="100" width="110" height="50" as="geometry" />
        </mxCell>
        <mxCell id="ueTn9yQbteEruOtS-YW8-485" value="Filtrar &#xa;Candidatos da Eleição" style="strokeWidth=1;" vertex="1" parent="ueTn9yQbteEruOtS-YW8-473">
          <mxGeometry x="30" y="348.5" width="130" height="50" as="geometry" />
        </mxCell>
        <mxCell id="ueTn9yQbteEruOtS-YW8-486" style="edgeStyle=orthogonalEdgeStyle;rounded=0;jumpSize=2;orthogonalLoop=1;jettySize=auto;html=1;exitX=0;exitY=0;exitDx=0;exitDy=0;entryX=1.013;entryY=0.58;entryDx=0;entryDy=0;entryPerimeter=0;strokeWidth=1;dashed=1;fillColor=#f8cecc;strokeColor=#b85450;" edge="1" parent="ueTn9yQbteEruOtS-YW8-473" source="ueTn9yQbteEruOtS-YW8-476" target="ueTn9yQbteEruOtS-YW8-485">
          <mxGeometry relative="1" as="geometry" />
        </mxCell>
        <mxCell id="ueTn9yQbteEruOtS-YW8-487" style="edgeStyle=orthogonalEdgeStyle;rounded=0;orthogonalLoop=1;jettySize=auto;html=1;entryX=-0.012;entryY=0.498;entryDx=0;entryDy=0;entryPerimeter=0;fillColor=#f8cecc;strokeColor=#b85450;exitX=1.002;exitY=0.504;exitDx=0;exitDy=0;exitPerimeter=0;" edge="1" parent="1" source="ueTn9yQbteEruOtS-YW8-472" target="ueTn9yQbteEruOtS-YW8-462">
          <mxGeometry relative="1" as="geometry" />
        </mxCell>
        <mxCell id="ueTn9yQbteEruOtS-YW8-488" style="edgeStyle=orthogonalEdgeStyle;rounded=0;jumpSize=2;orthogonalLoop=1;jettySize=auto;html=1;exitX=0;exitY=0.5;exitDx=0;exitDy=0;entryX=0.451;entryY=-0.068;entryDx=0;entryDy=0;entryPerimeter=0;strokeWidth=1;fillColor=#f8cecc;strokeColor=#b85450;" edge="1" parent="1" source="ueTn9yQbteEruOtS-YW8-490" target="ueTn9yQbteEruOtS-YW8-495">
          <mxGeometry relative="1" as="geometry">
            <Array as="points">
              <mxPoint x="3104" y="1179" />
              <mxPoint x="2988" y="1179" />
              <mxPoint x="2988" y="1129" />
              <mxPoint x="2555" y="1129" />
            </Array>
          </mxGeometry>
        </mxCell>
        <mxCell id="ueTn9yQbteEruOtS-YW8-489" style="edgeStyle=orthogonalEdgeStyle;rounded=0;jumpSize=2;orthogonalLoop=1;jettySize=auto;html=1;entryX=1;entryY=0.5;entryDx=0;entryDy=0;strokeWidth=1;fillColor=#f8cecc;strokeColor=#b85450;" edge="1" parent="1" source="ueTn9yQbteEruOtS-YW8-490" target="ueTn9yQbteEruOtS-YW8-467">
          <mxGeometry relative="1" as="geometry">
            <Array as="points">
              <mxPoint x="3198" y="1175" />
              <mxPoint x="3198" y="1134" />
            </Array>
          </mxGeometry>
        </mxCell>
        <mxCell id="ueTn9yQbteEruOtS-YW8-490" value="" style="rhombus;fillColor=#FFFFC0;strokeColor=#b85450;" vertex="1" parent="1">
          <mxGeometry x="3104" y="1154.5" width="40" height="40" as="geometry" />
        </mxCell>
        <mxCell id="ueTn9yQbteEruOtS-YW8-491" style="edgeStyle=orthogonalEdgeStyle;rounded=0;jumpSize=2;orthogonalLoop=1;jettySize=auto;html=1;entryX=1.18;entryY=0.26;entryDx=0;entryDy=0;strokeWidth=1;fillColor=#f8cecc;strokeColor=#b85450;entryPerimeter=0;exitX=1;exitY=0.005;exitDx=0;exitDy=0;exitPerimeter=0;" edge="1" parent="1" source="ueTn9yQbteEruOtS-YW8-462" target="ueTn9yQbteEruOtS-YW8-475">
          <mxGeometry relative="1" as="geometry">
            <Array as="points">
              <mxPoint x="2868" y="1069" />
              <mxPoint x="3025" y="1069" />
              <mxPoint x="3025" y="1109" />
              <mxPoint x="3295" y="1109" />
              <mxPoint x="3295" y="1208" />
            </Array>
            <mxPoint x="2855.5" y="1069" as="sourcePoint" />
          </mxGeometry>
        </mxCell>
        <mxCell id="ueTn9yQbteEruOtS-YW8-492" value="Não" style="text;html=1;strokeColor=none;fillColor=none;align=center;verticalAlign=middle;whiteSpace=wrap;rounded=0;" vertex="1" parent="1">
          <mxGeometry x="3134.5" y="1150" width="60" height="30" as="geometry" />
        </mxCell>
        <mxCell id="ueTn9yQbteEruOtS-YW8-493" style="edgeStyle=orthogonalEdgeStyle;rounded=0;jumpSize=2;orthogonalLoop=1;jettySize=auto;html=1;entryX=0.5;entryY=1;entryDx=0;entryDy=0;strokeWidth=1;fillColor=#f8cecc;strokeColor=#b85450;exitX=-0.004;exitY=0.635;exitDx=0;exitDy=0;exitPerimeter=0;" edge="1" parent="1" source="ueTn9yQbteEruOtS-YW8-475" target="ueTn9yQbteEruOtS-YW8-490">
          <mxGeometry relative="1" as="geometry">
            <Array as="points">
              <mxPoint x="3124" y="1229" />
              <mxPoint x="3124" y="1219" />
              <mxPoint x="3124" y="1219" />
            </Array>
            <mxPoint x="3255.5" y="1229" as="sourcePoint" />
          </mxGeometry>
        </mxCell>
        <mxCell id="ueTn9yQbteEruOtS-YW8-494" style="edgeStyle=orthogonalEdgeStyle;rounded=0;jumpSize=2;orthogonalLoop=1;jettySize=auto;html=1;entryX=0.007;entryY=0.489;entryDx=0;entryDy=0;entryPerimeter=0;strokeWidth=1;fillColor=#f8cecc;strokeColor=#b85450;" edge="1" parent="1" source="ueTn9yQbteEruOtS-YW8-495" target="ueTn9yQbteEruOtS-YW8-463">
          <mxGeometry relative="1" as="geometry" />
        </mxCell>
        <mxCell id="ueTn9yQbteEruOtS-YW8-495" value="Interagir" style="strokeWidth=1;" vertex="1" parent="1">
          <mxGeometry x="2505.5" y="1159" width="110" height="50" as="geometry" />
        </mxCell>
        <mxCell id="ueTn9yQbteEruOtS-YW8-496" style="edgeStyle=orthogonalEdgeStyle;rounded=0;jumpSize=2;orthogonalLoop=1;jettySize=auto;html=1;entryX=1.009;entryY=0.43;entryDx=0;entryDy=0;entryPerimeter=0;strokeWidth=1;fillColor=#f8cecc;strokeColor=#b85450;exitX=-0.001;exitY=0.487;exitDx=0;exitDy=0;exitPerimeter=0;" edge="1" parent="1" target="ueTn9yQbteEruOtS-YW8-463" source="ueTn9yQbteEruOtS-YW8-485">
          <mxGeometry relative="1" as="geometry">
            <mxPoint x="3108" y="1313" as="sourcePoint" />
            <Array as="points">
              <mxPoint x="3098" y="1313" />
              <mxPoint x="2968" y="1313" />
              <mxPoint x="2968" y="1180" />
            </Array>
          </mxGeometry>
        </mxCell>
        <mxCell id="ueTn9yQbteEruOtS-YW8-497" value="" style="ellipse;html=1;shape=endState;fillColor=#000000;strokeColor=#b85450;strokeWidth=1;" vertex="1" parent="1">
          <mxGeometry x="1711" y="1420" width="30" height="30" as="geometry" />
        </mxCell>
        <mxCell id="ueTn9yQbteEruOtS-YW8-500" style="edgeStyle=orthogonalEdgeStyle;rounded=0;jumpSize=2;orthogonalLoop=1;jettySize=auto;html=1;strokeWidth=1;fillColor=#f8cecc;strokeColor=#b85450;entryX=0.453;entryY=0.005;entryDx=0;entryDy=0;entryPerimeter=0;" edge="1" parent="1" target="ueTn9yQbteEruOtS-YW8-497">
          <mxGeometry relative="1" as="geometry">
            <mxPoint x="1680" y="1360" as="sourcePoint" />
            <mxPoint x="1726" y="1410" as="targetPoint" />
            <Array as="points">
              <mxPoint x="1680" y="1380" />
              <mxPoint x="1725" y="1380" />
              <mxPoint x="1725" y="1410" />
              <mxPoint x="1724" y="1410" />
            </Array>
          </mxGeometry>
        </mxCell>
        <mxCell id="ueTn9yQbteEruOtS-YW8-503" value="Link de&lt;br&gt;Votar" style="text;html=1;strokeColor=none;fillColor=none;align=center;verticalAlign=middle;whiteSpace=wrap;rounded=0;" vertex="1" parent="1">
          <mxGeometry x="1697" y="1440" width="60" height="30" as="geometry" />
        </mxCell>
        <mxCell id="ueTn9yQbteEruOtS-YW8-513" style="edgeStyle=orthogonalEdgeStyle;rounded=0;jumpSize=2;orthogonalLoop=1;jettySize=auto;html=1;entryX=-0.659;entryY=0.178;entryDx=0;entryDy=0;entryPerimeter=0;strokeWidth=1;dashed=1;fillColor=#f8cecc;strokeColor=#b85450;exitX=1.018;exitY=0.4;exitDx=0;exitDy=0;exitPerimeter=0;" edge="1" parent="1" source="ueTn9yQbteEruOtS-YW8-482" target="ueTn9yQbteEruOtS-YW8-512">
          <mxGeometry relative="1" as="geometry">
            <Array as="points">
              <mxPoint x="3354" y="999" />
              <mxPoint x="3354" y="1359" />
              <mxPoint x="2934" y="1359" />
              <mxPoint x="2934" y="1289" />
              <mxPoint x="2890" y="1289" />
            </Array>
          </mxGeometry>
        </mxCell>
        <mxCell id="ueTn9yQbteEruOtS-YW8-534" style="edgeStyle=orthogonalEdgeStyle;rounded=0;jumpSize=2;orthogonalLoop=1;jettySize=auto;html=1;entryX=1.003;entryY=0.188;entryDx=0;entryDy=0;entryPerimeter=0;strokeWidth=1;fillColor=#f8cecc;strokeColor=#b85450;dashed=1;" edge="1" parent="1" source="ueTn9yQbteEruOtS-YW8-530" target="ueTn9yQbteEruOtS-YW8-482">
          <mxGeometry relative="1" as="geometry">
            <Array as="points">
              <mxPoint x="3364" y="1394" />
              <mxPoint x="3364" y="988" />
            </Array>
          </mxGeometry>
        </mxCell>
        <mxCell id="ueTn9yQbteEruOtS-YW8-535" value="Reportar" style="shape=umlFrame;whiteSpace=wrap;html=1;" vertex="1" parent="1">
          <mxGeometry x="131" y="870" width="944.5" height="661" as="geometry" />
        </mxCell>
        <mxCell id="ueTn9yQbteEruOtS-YW8-536" value="Usuário" style="swimlane;whiteSpace=wrap" vertex="1" parent="1">
          <mxGeometry x="173.5" y="919" width="271.5" height="572" as="geometry" />
        </mxCell>
        <mxCell id="ueTn9yQbteEruOtS-YW8-537" value="" style="ellipse;shape=startState;fillColor=#000000;strokeColor=#b85450;" vertex="1" parent="ueTn9yQbteEruOtS-YW8-536">
          <mxGeometry x="100" y="40" width="30" height="30" as="geometry" />
        </mxCell>
        <mxCell id="ueTn9yQbteEruOtS-YW8-538" value="" style="edgeStyle=elbowEdgeStyle;elbow=horizontal;verticalAlign=bottom;endArrow=open;endSize=8;strokeColor=#b85450;endFill=1;rounded=0;fillColor=#f8cecc;exitX=0.508;exitY=0.872;exitDx=0;exitDy=0;exitPerimeter=0;entryX=0.502;entryY=-0.004;entryDx=0;entryDy=0;entryPerimeter=0;" edge="1" parent="ueTn9yQbteEruOtS-YW8-536" source="ueTn9yQbteEruOtS-YW8-537" target="ueTn9yQbteEruOtS-YW8-539">
          <mxGeometry x="100" y="40" as="geometry">
            <mxPoint x="115" y="110" as="targetPoint" />
          </mxGeometry>
        </mxCell>
        <mxCell id="ueTn9yQbteEruOtS-YW8-539" value="Acessar Pag&#xa; Reportar" style="" vertex="1" parent="ueTn9yQbteEruOtS-YW8-536">
          <mxGeometry x="60" y="110" width="110" height="50" as="geometry" />
        </mxCell>
        <mxCell id="ueTn9yQbteEruOtS-YW8-540" value="Interface" style="swimlane;whiteSpace=wrap" vertex="1" parent="1">
          <mxGeometry x="445.5" y="919" width="280" height="572" as="geometry" />
        </mxCell>
        <mxCell id="ueTn9yQbteEruOtS-YW8-541" value="" style="ellipse;shape=startState;fillColor=#000000;strokeColor=#b85450;" vertex="1" parent="ueTn9yQbteEruOtS-YW8-540">
          <mxGeometry x="60" y="32" width="30" height="30" as="geometry" />
        </mxCell>
        <mxCell id="ueTn9yQbteEruOtS-YW8-542" value="" style="edgeStyle=elbowEdgeStyle;elbow=horizontal;verticalAlign=bottom;endArrow=open;endSize=8;strokeColor=#b85450;endFill=1;rounded=0;fillColor=#f8cecc;exitX=0.486;exitY=0.889;exitDx=0;exitDy=0;exitPerimeter=0;entryX=0.511;entryY=-0.01;entryDx=0;entryDy=0;entryPerimeter=0;" edge="1" parent="ueTn9yQbteEruOtS-YW8-540" source="ueTn9yQbteEruOtS-YW8-541" target="ueTn9yQbteEruOtS-YW8-544">
          <mxGeometry x="40" y="20" as="geometry">
            <mxPoint x="75.5" y="112" as="targetPoint" />
          </mxGeometry>
        </mxCell>
        <mxCell id="ueTn9yQbteEruOtS-YW8-543" style="edgeStyle=orthogonalEdgeStyle;rounded=0;jumpSize=2;orthogonalLoop=1;jettySize=auto;html=1;entryX=0.504;entryY=-0.008;entryDx=0;entryDy=0;entryPerimeter=0;strokeWidth=1;fillColor=#f8cecc;strokeColor=#b85450;exitX=0.502;exitY=0.983;exitDx=0;exitDy=0;exitPerimeter=0;" edge="1" parent="ueTn9yQbteEruOtS-YW8-540" source="ueTn9yQbteEruOtS-YW8-544" target="ueTn9yQbteEruOtS-YW8-545">
          <mxGeometry relative="1" as="geometry">
            <mxPoint x="75.5" y="272" as="sourcePoint" />
          </mxGeometry>
        </mxCell>
        <mxCell id="ueTn9yQbteEruOtS-YW8-544" value="Verificar &#xa;Usuário Logado" style="strokeWidth=1;" vertex="1" parent="ueTn9yQbteEruOtS-YW8-540">
          <mxGeometry x="20" y="112" width="110" height="50" as="geometry" />
        </mxCell>
        <mxCell id="ueTn9yQbteEruOtS-YW8-545" value="Formulário" style="strokeWidth=1;" vertex="1" parent="ueTn9yQbteEruOtS-YW8-540">
          <mxGeometry x="74.5" y="331" width="110" height="50" as="geometry" />
        </mxCell>
        <mxCell id="ueTn9yQbteEruOtS-YW8-583" value="" style="whiteSpace=wrap;strokeColor=#b85450;fillColor=#f8cecc;rotation=0;" vertex="1" parent="ueTn9yQbteEruOtS-YW8-540">
          <mxGeometry x="144.5" y="431" width="4.5" height="60" as="geometry" />
        </mxCell>
        <mxCell id="ueTn9yQbteEruOtS-YW8-546" value="Aplicativo" style="swimlane;whiteSpace=wrap" vertex="1" parent="1">
          <mxGeometry x="725.5" y="919" width="280" height="572" as="geometry" />
        </mxCell>
        <mxCell id="ueTn9yQbteEruOtS-YW8-547" value="Sim" style="text;html=1;strokeColor=none;fillColor=none;align=center;verticalAlign=middle;whiteSpace=wrap;rounded=0;" vertex="1" parent="ueTn9yQbteEruOtS-YW8-546">
          <mxGeometry x="110" y="231" width="60" height="30" as="geometry" />
        </mxCell>
        <mxCell id="ueTn9yQbteEruOtS-YW8-549" value="" style="whiteSpace=wrap;strokeColor=#b85450;fillColor=#f8cecc;rotation=90;" vertex="1" parent="ueTn9yQbteEruOtS-YW8-546">
          <mxGeometry x="137.75" y="381" width="4.5" height="31" as="geometry" />
        </mxCell>
        <mxCell id="ueTn9yQbteEruOtS-YW8-553" value="" style="rhombus;fillColor=#FFFFC0;strokeColor=#b85450;" vertex="1" parent="ueTn9yQbteEruOtS-YW8-546">
          <mxGeometry x="156.75" y="235.5" width="40" height="40" as="geometry" />
        </mxCell>
        <mxCell id="ueTn9yQbteEruOtS-YW8-572" style="edgeStyle=orthogonalEdgeStyle;rounded=0;jumpSize=2;orthogonalLoop=1;jettySize=auto;html=1;strokeWidth=1;startArrow=classic;startFill=1;endArrow=none;endFill=0;entryX=0.972;entryY=0.492;entryDx=0;entryDy=0;entryPerimeter=0;fillColor=#f8cecc;strokeColor=#b85450;exitX=0.053;exitY=0.037;exitDx=0;exitDy=0;exitPerimeter=0;" edge="1" parent="ueTn9yQbteEruOtS-YW8-546" source="ueTn9yQbteEruOtS-YW8-549" target="ueTn9yQbteEruOtS-YW8-553">
          <mxGeometry relative="1" as="geometry">
            <mxPoint x="184.5" y="261" as="targetPoint" />
            <Array as="points">
              <mxPoint x="154" y="327" />
              <mxPoint x="245" y="327" />
              <mxPoint x="245" y="255" />
            </Array>
          </mxGeometry>
        </mxCell>
        <mxCell id="ueTn9yQbteEruOtS-YW8-550" style="edgeStyle=orthogonalEdgeStyle;rounded=0;orthogonalLoop=1;jettySize=auto;html=1;entryX=0.013;entryY=0.477;entryDx=0;entryDy=0;entryPerimeter=0;fillColor=#f8cecc;strokeColor=#b85450;exitX=1.002;exitY=0.504;exitDx=0;exitDy=0;exitPerimeter=0;" edge="1" parent="1" source="ueTn9yQbteEruOtS-YW8-539" target="ueTn9yQbteEruOtS-YW8-544">
          <mxGeometry relative="1" as="geometry">
            <mxPoint x="464.17999999999984" y="1053.9" as="targetPoint" />
          </mxGeometry>
        </mxCell>
        <mxCell id="ueTn9yQbteEruOtS-YW8-551" style="edgeStyle=orthogonalEdgeStyle;rounded=0;jumpSize=2;orthogonalLoop=1;jettySize=auto;html=1;exitX=0;exitY=0.5;exitDx=0;exitDy=0;entryX=0.456;entryY=-0.051;entryDx=0;entryDy=0;entryPerimeter=0;strokeWidth=1;fillColor=#f8cecc;strokeColor=#b85450;" edge="1" parent="1" source="ueTn9yQbteEruOtS-YW8-553" target="ueTn9yQbteEruOtS-YW8-565">
          <mxGeometry relative="1" as="geometry">
            <mxPoint x="575.3899999999999" y="1052.95" as="targetPoint" />
            <Array as="points">
              <mxPoint x="790" y="1175" />
              <mxPoint x="792" y="1175" />
            </Array>
          </mxGeometry>
        </mxCell>
        <mxCell id="ueTn9yQbteEruOtS-YW8-569" style="edgeStyle=orthogonalEdgeStyle;rounded=0;jumpSize=2;orthogonalLoop=1;jettySize=auto;html=1;entryX=0;entryY=0;entryDx=0;entryDy=0;strokeWidth=1;startArrow=classic;startFill=1;endArrow=none;endFill=0;fillColor=#f8cecc;strokeColor=#b85450;" edge="1" parent="1" source="ueTn9yQbteEruOtS-YW8-553" target="ueTn9yQbteEruOtS-YW8-566">
          <mxGeometry relative="1" as="geometry" />
        </mxCell>
        <mxCell id="ueTn9yQbteEruOtS-YW8-554" style="edgeStyle=orthogonalEdgeStyle;rounded=0;jumpSize=2;orthogonalLoop=1;jettySize=auto;html=1;entryX=0.7;entryY=-0.031;entryDx=0;entryDy=0;strokeWidth=1;exitX=0.884;exitY=0.792;exitDx=0;exitDy=0;fillColor=#f8cecc;strokeColor=#b85450;entryPerimeter=0;dashed=1;exitPerimeter=0;" edge="1" parent="1" source="ueTn9yQbteEruOtS-YW8-583" target="ueTn9yQbteEruOtS-YW8-559">
          <mxGeometry relative="1" as="geometry">
            <Array as="points">
              <mxPoint x="650" y="1397" />
              <mxPoint x="650" y="1440" />
              <mxPoint x="1000" y="1440" />
              <mxPoint x="1000" y="960" />
              <mxPoint x="886" y="960" />
            </Array>
          </mxGeometry>
        </mxCell>
        <mxCell id="ueTn9yQbteEruOtS-YW8-555" value="Não" style="text;html=1;strokeColor=none;fillColor=none;align=center;verticalAlign=middle;whiteSpace=wrap;rounded=0;" vertex="1" parent="1">
          <mxGeometry x="918.5" y="1151" width="60" height="30" as="geometry" />
        </mxCell>
        <mxCell id="ueTn9yQbteEruOtS-YW8-556" style="edgeStyle=orthogonalEdgeStyle;rounded=0;jumpSize=2;orthogonalLoop=1;jettySize=auto;html=1;entryX=0.003;entryY=0.301;entryDx=0;entryDy=0;entryPerimeter=0;strokeWidth=1;fillColor=#f8cecc;strokeColor=#b85450;exitX=0.851;exitY=0.471;exitDx=0;exitDy=0;exitPerimeter=0;" edge="1" parent="1" source="ueTn9yQbteEruOtS-YW8-557" target="ueTn9yQbteEruOtS-YW8-559">
          <mxGeometry relative="1" as="geometry">
            <Array as="points">
              <mxPoint x="847" y="965" />
              <mxPoint x="847" y="1016" />
            </Array>
          </mxGeometry>
        </mxCell>
        <mxCell id="ueTn9yQbteEruOtS-YW8-557" value="" style="ellipse;shape=startState;fillColor=#000000;strokeColor=#b85450;" vertex="1" parent="1">
          <mxGeometry x="760" y="951" width="30" height="30" as="geometry" />
        </mxCell>
        <mxCell id="ueTn9yQbteEruOtS-YW8-558" style="edgeStyle=orthogonalEdgeStyle;rounded=0;jumpSize=2;orthogonalLoop=1;jettySize=auto;html=1;strokeWidth=1;fillColor=#f8cecc;strokeColor=#b85450;exitX=0.994;exitY=0.496;exitDx=0;exitDy=0;exitPerimeter=0;entryX=0.029;entryY=0.087;entryDx=0;entryDy=0;entryPerimeter=0;dashed=1;" edge="1" parent="1" source="ueTn9yQbteEruOtS-YW8-559" target="ueTn9yQbteEruOtS-YW8-566">
          <mxGeometry relative="1" as="geometry">
            <mxPoint x="920" y="1174" as="targetPoint" />
            <Array as="points">
              <mxPoint x="950" y="1026" />
              <mxPoint x="950" y="1060" />
              <mxPoint x="927" y="1060" />
            </Array>
          </mxGeometry>
        </mxCell>
        <mxCell id="ueTn9yQbteEruOtS-YW8-559" value="Banco de dados" style="" vertex="1" parent="1">
          <mxGeometry x="809.5" y="1001" width="110" height="50" as="geometry" />
        </mxCell>
        <mxCell id="ueTn9yQbteEruOtS-YW8-561" style="edgeStyle=orthogonalEdgeStyle;rounded=0;jumpSize=2;orthogonalLoop=1;jettySize=auto;html=1;entryX=0.998;entryY=0.532;entryDx=0;entryDy=0;entryPerimeter=0;strokeWidth=1;fillColor=#f8cecc;strokeColor=#b85450;exitX=-0.11;exitY=0.765;exitDx=0;exitDy=0;exitPerimeter=0;endArrow=none;endFill=0;startArrow=classic;startFill=1;" edge="1" parent="1" source="ueTn9yQbteEruOtS-YW8-566" target="ueTn9yQbteEruOtS-YW8-544">
          <mxGeometry relative="1" as="geometry">
            <mxPoint x="780" y="1081" as="sourcePoint" />
            <Array as="points">
              <mxPoint x="886" y="1081" />
              <mxPoint x="779" y="1081" />
              <mxPoint x="779" y="1058" />
            </Array>
          </mxGeometry>
        </mxCell>
        <mxCell id="ueTn9yQbteEruOtS-YW8-592" style="edgeStyle=orthogonalEdgeStyle;rounded=0;jumpSize=2;orthogonalLoop=1;jettySize=auto;html=1;entryX=0.462;entryY=1.05;entryDx=0;entryDy=0;entryPerimeter=0;strokeWidth=1;startArrow=open;startFill=0;endArrow=none;endFill=0;exitX=0.529;exitY=0.032;exitDx=0;exitDy=0;exitPerimeter=0;fillColor=#f8cecc;strokeColor=#b85450;" edge="1" parent="1" source="ueTn9yQbteEruOtS-YW8-562" target="ueTn9yQbteEruOtS-YW8-539">
          <mxGeometry relative="1" as="geometry" />
        </mxCell>
        <mxCell id="ueTn9yQbteEruOtS-YW8-562" value="Interagir" style="" vertex="1" parent="1">
          <mxGeometry x="226" y="1232.5" width="110" height="50" as="geometry" />
        </mxCell>
        <mxCell id="ueTn9yQbteEruOtS-YW8-565" value="Campos requerimento &#xa;dos dados &#xa;do usuário &#xa;preenchidos" style="strokeWidth=1;" vertex="1" parent="1">
          <mxGeometry x="731.75" y="1194.5" width="125.5" height="65.5" as="geometry" />
        </mxCell>
        <mxCell id="ueTn9yQbteEruOtS-YW8-566" value="" style="whiteSpace=wrap;strokeColor=#b85450;fillColor=#f8cecc;rotation=90;" vertex="1" parent="1">
          <mxGeometry x="900" y="1089" width="4.5" height="60" as="geometry" />
        </mxCell>
        <mxCell id="ueTn9yQbteEruOtS-YW8-574" style="edgeStyle=orthogonalEdgeStyle;rounded=0;jumpSize=2;orthogonalLoop=1;jettySize=auto;html=1;entryX=0.503;entryY=0.989;entryDx=0;entryDy=0;entryPerimeter=0;strokeWidth=1;startArrow=classic;startFill=1;endArrow=none;endFill=0;exitX=0.269;exitY=0.931;exitDx=0;exitDy=0;exitPerimeter=0;fillColor=#f8cecc;strokeColor=#b85450;" edge="1" parent="1" source="ueTn9yQbteEruOtS-YW8-549" target="ueTn9yQbteEruOtS-YW8-565">
          <mxGeometry relative="1" as="geometry">
            <Array as="points">
              <mxPoint x="852" y="1278" />
              <mxPoint x="795" y="1278" />
            </Array>
          </mxGeometry>
        </mxCell>
        <mxCell id="ueTn9yQbteEruOtS-YW8-575" style="edgeStyle=orthogonalEdgeStyle;rounded=0;jumpSize=2;orthogonalLoop=1;jettySize=auto;html=1;entryX=0.811;entryY=0.416;entryDx=0;entryDy=0;entryPerimeter=0;strokeWidth=1;startArrow=classic;startFill=1;endArrow=none;endFill=0;exitX=0.993;exitY=0.44;exitDx=0;exitDy=0;exitPerimeter=0;fillColor=#f8cecc;strokeColor=#b85450;" edge="1" parent="1" source="ueTn9yQbteEruOtS-YW8-545" target="ueTn9yQbteEruOtS-YW8-549">
          <mxGeometry relative="1" as="geometry" />
        </mxCell>
        <mxCell id="ueTn9yQbteEruOtS-YW8-579" style="edgeStyle=orthogonalEdgeStyle;rounded=0;jumpSize=2;orthogonalLoop=1;jettySize=auto;html=1;entryX=0.465;entryY=0.998;entryDx=0;entryDy=0;entryPerimeter=0;strokeWidth=1;startArrow=classic;startFill=1;endArrow=none;endFill=0;fillColor=#f8cecc;strokeColor=#b85450;" edge="1" parent="1" source="ueTn9yQbteEruOtS-YW8-576" target="ueTn9yQbteEruOtS-YW8-545">
          <mxGeometry relative="1" as="geometry" />
        </mxCell>
        <mxCell id="ueTn9yQbteEruOtS-YW8-576" value="" style="rhombus;fillColor=#FFFFC0;strokeColor=#b85450;" vertex="1" parent="1">
          <mxGeometry x="530" y="1350" width="40" height="40" as="geometry" />
        </mxCell>
        <mxCell id="ueTn9yQbteEruOtS-YW8-577" value="Não" style="text;html=1;strokeColor=none;fillColor=none;align=center;verticalAlign=middle;whiteSpace=wrap;rounded=0;" vertex="1" parent="1">
          <mxGeometry x="490" y="1350" width="60" height="30" as="geometry" />
        </mxCell>
        <mxCell id="ueTn9yQbteEruOtS-YW8-580" style="edgeStyle=orthogonalEdgeStyle;rounded=0;jumpSize=2;orthogonalLoop=1;jettySize=auto;html=1;entryX=0;entryY=0.5;entryDx=0;entryDy=0;strokeWidth=1;startArrow=classic;startFill=1;endArrow=none;endFill=0;fillColor=#f8cecc;strokeColor=#b85450;exitX=-0.009;exitY=0.566;exitDx=0;exitDy=0;exitPerimeter=0;" edge="1" parent="1" source="ueTn9yQbteEruOtS-YW8-545" target="ueTn9yQbteEruOtS-YW8-576">
          <mxGeometry relative="1" as="geometry">
            <Array as="points">
              <mxPoint x="500" y="1278" />
              <mxPoint x="500" y="1370" />
            </Array>
          </mxGeometry>
        </mxCell>
        <mxCell id="ueTn9yQbteEruOtS-YW8-585" style="edgeStyle=orthogonalEdgeStyle;rounded=0;jumpSize=2;orthogonalLoop=1;jettySize=auto;html=1;entryX=1;entryY=0.5;entryDx=0;entryDy=0;strokeWidth=1;startArrow=classic;startFill=1;endArrow=none;endFill=0;fillColor=#f8cecc;strokeColor=#b85450;" edge="1" parent="1" source="ueTn9yQbteEruOtS-YW8-583" target="ueTn9yQbteEruOtS-YW8-576">
          <mxGeometry relative="1" as="geometry" />
        </mxCell>
        <mxCell id="ueTn9yQbteEruOtS-YW8-589" style="edgeStyle=orthogonalEdgeStyle;rounded=0;jumpSize=2;orthogonalLoop=1;jettySize=auto;html=1;entryX=0;entryY=0;entryDx=0;entryDy=0;strokeWidth=1;startArrow=classic;startFill=1;endArrow=none;endFill=0;exitX=0.495;exitY=1.02;exitDx=0;exitDy=0;exitPerimeter=0;fillColor=#f8cecc;strokeColor=#b85450;" edge="1" parent="1" source="ueTn9yQbteEruOtS-YW8-586" target="ueTn9yQbteEruOtS-YW8-583">
          <mxGeometry relative="1" as="geometry">
            <Array as="points">
              <mxPoint x="659" y="1380" />
            </Array>
          </mxGeometry>
        </mxCell>
        <mxCell id="ueTn9yQbteEruOtS-YW8-586" value="MSG: Mensagem &#xa;enviada com sucesso" style="strokeWidth=1;" vertex="1" parent="1">
          <mxGeometry x="600" y="1310" width="120" height="50" as="geometry" />
        </mxCell>
        <mxCell id="ueTn9yQbteEruOtS-YW8-594" style="edgeStyle=orthogonalEdgeStyle;rounded=0;jumpSize=2;orthogonalLoop=1;jettySize=auto;html=1;entryX=1.004;entryY=0.502;entryDx=0;entryDy=0;entryPerimeter=0;strokeWidth=1;startArrow=classic;startFill=1;endArrow=none;endFill=0;exitX=-0.007;exitY=0.566;exitDx=0;exitDy=0;exitPerimeter=0;fillColor=#f8cecc;strokeColor=#b85450;" edge="1" parent="1" source="ueTn9yQbteEruOtS-YW8-545" target="ueTn9yQbteEruOtS-YW8-562">
          <mxGeometry relative="1" as="geometry" />
        </mxCell>
      </root>
    </mxGraphModel>
  </diagram>
</mxfile>
